<?xml version="1.0" encoding="UTF-8" standalone="no"?>
<!-- Created with Inkscape (http://www.inkscape.org/) -->

<svg
   xmlns:dc="http://purl.org/dc/elements/1.1/"
   xmlns:cc="http://creativecommons.org/ns#"
   xmlns:rdf="http://www.w3.org/1999/02/22-rdf-syntax-ns#"
   xmlns:svg="http://www.w3.org/2000/svg"
   xmlns="http://www.w3.org/2000/svg"
   xmlns:sodipodi="http://sodipodi.sourceforge.net/DTD/sodipodi-0.dtd"
   xmlns:inkscape="http://www.inkscape.org/namespaces/inkscape"
   width="210mm"
   height="297mm"
   viewBox="0 0 744.09448819 1052.3622047"
   id="svg2"
   version="1.1"
   inkscape:version="0.91 r13725"
   sodipodi:docname="touousousa2.svg"
   inkscape:export-filename="/Users/maeno/Dropbox/la9/movingtext/TD/touonsousa2.png"
   inkscape:export-xdpi="200"
   inkscape:export-ydpi="200">
  <sodipodi:namedview
     id="base"
     pagecolor="#ffffff"
     bordercolor="#666666"
     borderopacity="1.0"
     inkscape:pageopacity="0.0"
     inkscape:pageshadow="2"
     inkscape:zoom="1.7209789"
     inkscape:cx="609.72406"
     inkscape:cy="768.43783"
     inkscape:document-units="px"
     inkscape:current-layer="layer1"
     showgrid="false"
     inkscape:window-width="2509"
     inkscape:window-height="1395"
     inkscape:window-x="51"
     inkscape:window-y="23"
     inkscape:window-maximized="1" />
  <defs
     id="defs4">
    <marker
       inkscape:isstock="true"
       style="overflow:visible;"
       id="marker4941"
       refX="0.0"
       refY="0.0"
       orient="auto"
       inkscape:stockid="Arrow1Lend">
      <path
         transform="scale(0.8) rotate(180) translate(12.5,0)"
         style="fill-rule:evenodd;stroke:#000000;stroke-width:1pt;stroke-opacity:1;fill:#000000;fill-opacity:1"
         d="M 0.0,0.0 L 5.0,-5.0 L -12.5,0.0 L 5.0,5.0 L 0.0,0.0 z "
         id="path4943" />
    </marker>
    <marker
       inkscape:isstock="true"
       style="overflow:visible;"
       id="Arrow1Lend"
       refX="0.0"
       refY="0.0"
       orient="auto"
       inkscape:stockid="Arrow1Lend"
       inkscape:collect="always">
      <path
         transform="scale(0.8) rotate(180) translate(12.5,0)"
         style="fill-rule:evenodd;stroke:#000000;stroke-width:1pt;stroke-opacity:1;fill:#000000;fill-opacity:1"
         d="M 0.0,0.0 L 5.0,-5.0 L -12.5,0.0 L 5.0,5.0 L 0.0,0.0 z "
         id="path4219" />
    </marker>
  </defs>
  <metadata
     id="metadata7">
    <rdf:RDF>
      <cc:Work
         rdf:about="">
        <dc:format>image/svg+xml</dc:format>
        <dc:type
           rdf:resource="http://purl.org/dc/dcmitype/StillImage" />
        <dc:title></dc:title>
      </cc:Work>
    </rdf:RDF>
  </metadata>
  <g
     id="layer1"
     inkscape:groupmode="layer"
     inkscape:label="レイヤー 1">
    <rect
       rx="0"
       style="opacity:1;fill:#f5f5f5 icc-color(Generic-CMYK-Profile, 0, 0, 0, 0);fill-opacity:1;fill-rule:nonzero;stroke:#898b8a icc-color(Generic-CMYK-Profile, 0, 0, 0, 0.5);stroke-width:1;stroke-linecap:butt;stroke-linejoin:round;stroke-miterlimit:4;stroke-dasharray:none;stroke-dashoffset:0;stroke-opacity:1"
       id="rect4208"
       width="133.0795"
       height="63.333038"
       x="909.67188"
       y="68.318756"
       ry="6.3547597" />
    <g
       id="g6052">
      <rect
         rx="0"
         style="opacity:1;fill:#f5f5f5 icc-color(Generic-CMYK-Profile, 0, 0, 0, 0);fill-opacity:1;fill-rule:nonzero;stroke:#898b8a icc-color(Generic-CMYK-Profile, 0, 0, 0, 0.5);stroke-width:1;stroke-linecap:butt;stroke-linejoin:round;stroke-miterlimit:4;stroke-dasharray:none;stroke-dashoffset:0;stroke-opacity:1"
         id="rect4136"
         width="133.0795"
         height="63.333038"
         x="64.754539"
         y="166.25134"
         ry="6.3547597" />
      <g
         transform="translate(-1002,-205.71429)"
         id="g4144">
        <g
           style="font-style:normal;font-variant:normal;font-weight:normal;font-stretch:normal;letter-spacing:normal;word-spacing:normal;text-anchor:start;fill:none;fill-opacity:1;fill-rule:evenodd;stroke:#000000;stroke-linecap:butt;stroke-linejoin:miter;stroke-miterlimit:10.43299961;stroke-dasharray:none;stroke-dashoffset:0;stroke-opacity:1"
           id="content"
           transform="matrix(1.0629921,0,0,-1.0629921,-186.02362,789.27165)"
           xml:space="preserve"
           stroke-miterlimit="10.433"
           font-style="normal"
           font-variant="normal"
           font-weight="normal"
           font-stretch="normal"
           font-size-adjust="none"
           letter-spacing="normal"
           word-spacing="normal"><path
             style="fill:#000000;stroke-width:0"
             inkscape:connector-curvature="0"
             d="m 1209.8,376.68 0,0.06 0,0.06 0,0.13 0.1,0.11 0,0.11 0,0.11 0,0.1 0.1,0.09 0,0.09 0,0.08 0.1,0.08 0,0.07 0,0.07 0,0.06 0.1,0.06 0,0.06 0,0.05 0.1,0.05 0,0.05 0,0.04 0.1,0.04 0,0.03 0,0.03 0.1,0.03 0,0.03 0.1,0.03 0,0.02 0,0.02 0.1,0.02 0,0.02 0.1,0.01 0,0.02 0.1,0.01 c 0.5,0.11 2.1,0.11 3.1,0.11 5.1,0 7.3,-0.2 7.3,-4.09 0,-0.74 -0.2,-2.69 -0.4,-3.99 0,-0.19 -0.1,-0.8 -0.1,-0.94 0,-0.29 0.1,-0.65 0.6,-0.65 0.5,0 0.6,0.4 0.7,1.15 l 1.3,8.66 c 0.1,0.2 0.2,0.7 0.2,0.86 0,0.55 -0.5,0.55 -1.4,0.55 l -27.6,0 c -1.2,0 -1.3,-0.07 -1.6,-1 l -3,-8.77 c -0.1,-0.11 -0.3,-0.8 -0.3,-0.91 0,-0.29 0.2,-0.54 0.6,-0.54 0.5,0 0.5,0.25 0.8,1.04 2.7,7.72 4,8.63 11.4,8.63 l 1.9,0 c 1.4,0 1.4,-0.2 1.4,-0.59 0,-0.32 -0.1,-0.91 -0.2,-1.05 l -6.7,-26.61 c -0.4,-1.84 -0.6,-2.39 -5.9,-2.39 -1.8,0 -2.1,0 -2.1,-0.95 0,-0.6 0.6,-0.6 0.9,-0.6 1.3,0 2.7,0.1 4.1,0.1 1.3,0 2.8,0.06 4.2,0.06 1.4,0 2.8,-0.06 4.1,-0.06 1.5,0 3,-0.1 4.4,-0.1 0.5,0 1.1,0 1.1,1 0,0.55 -0.4,0.55 -1.7,0.55 -1.3,0 -1.9,0 -3.2,0.09 -1.5,0.16 -1.9,0.3 -1.9,1.1 0,0.06 0,0.31 0.2,1.04 z"
             id="path4147" /><path
             style="fill:#000000;stroke-width:0"
             inkscape:connector-curvature="0"
             d="m 1234.2,365.27 0,0.14 -0.1,0.13 0,0.13 0,0.13 0,0.13 -0.1,0.12 0,0.13 0,0.12 -0.1,0.11 -0.1,0.12 0,0.11 -0.1,0.1 -0.1,0.11 0,0.1 -0.1,0.09 -0.1,0.09 -0.1,0.09 -0.1,0.09 -0.1,0.07 -0.1,0.08 -0.1,0.07 -0.1,0.06 -0.1,0.06 -0.2,0.05 -0.1,0.05 -0.1,0.04 -0.1,0.04 -0.2,0.03 -0.1,0.02 -0.1,0.02 -0.1,0.01 -0.2,0 c -1.4,0 -2.6,-1.19 -2.6,-2.64 0,-1.44 1.2,-2.64 2.6,-2.64 1.5,0 2.7,1.2 2.7,2.64 z"
             id="path4149" /><path
             style="fill:#000000;stroke-width:0"
             inkscape:connector-curvature="0"
             d="m 1233.2,346.99 0,-0.14 0,-0.15 0,-0.17 0,-0.18 0,-0.19 0,-0.2 0,-0.21 0,-0.23 -0.1,-0.24 0,-0.25 0,-0.25 0,-0.27 -0.1,-0.27 0,-0.29 -0.1,-0.29 -0.1,-0.29 -0.1,-0.31 0,-0.31 -0.1,-0.32 -0.2,-0.32 -0.1,-0.33 -0.1,-0.33 -0.2,-0.33 -0.1,-0.34 -0.2,-0.34 -0.2,-0.34 -0.2,-0.35 -0.2,-0.34 -0.2,-0.35 -0.3,-0.35 -0.3,-0.34 -0.3,-0.35 c -0.3,-0.39 -0.3,-0.5 -0.3,-0.64 0,-0.36 0.2,-0.55 0.5,-0.55 0.5,0 4.1,3.99 4.1,9.77 0,1.44 -0.1,5.12 -2.8,5.12 -1.7,0 -2.6,-1.34 -2.6,-2.64 0,-1.29 0.8,-2.64 2.6,-2.64 0.3,0 0.4,0 0.4,0.05 0.4,0.05 0.9,0.15 1.3,0.5 z"
             id="path4151" /><path
             style="fill:#000000;stroke-width:0"
             inkscape:connector-curvature="0"
             d="m 1270.8,366.93 -4.1,9.9 c -0.2,0.41 -0.3,0.6 -0.3,0.64 0,0.32 0.8,1.25 2.9,1.46 0.5,0.04 1,0.09 1,0.95 0,0.59 -0.6,0.59 -0.7,0.59 -2,0 -4.2,-0.15 -6.3,-0.15 -1.2,0 -4.3,0.15 -5.6,0.15 -0.3,0 -0.9,0 -0.9,-1 0,-0.54 0.5,-0.54 1.2,-0.54 3,0 3.3,-0.5 3.7,-1.6 l 5.9,-13.9 -10.5,-11.32 -0.7,-0.54 c -2.4,-2.64 -4.7,-3.44 -7.3,-3.58 -0.6,-0.05 -1.1,-0.05 -1.1,-1 0,-0.05 0,-0.55 0.7,-0.55 1.5,0 3.1,0.16 4.6,0.16 1.9,0 3.8,-0.16 5.6,-0.16 0.3,0 0.9,0 0.9,1 0,0.5 -0.5,0.55 -0.6,0.55 -0.4,0.05 -2,0.14 -2,1.55 0,0.79 0.8,1.59 1.4,2.23 l 5.1,5.39 4.4,4.88 5.1,-11.91 c 0.2,-0.55 0.2,-0.59 0.2,-0.7 0,-0.39 -0.9,-1.24 -2.9,-1.44 -0.5,-0.05 -0.9,-0.11 -0.9,-0.95 0,-0.6 0.5,-0.6 0.7,-0.6 1.4,0 4.9,0.16 6.3,0.16 1.2,0 4.2,-0.16 5.5,-0.16 0.3,0 1,0 1,0.95 0,0.6 -0.5,0.6 -1,0.6 -3.3,0.05 -3.4,0.2 -4.2,2.19 -2,4.64 -5.3,12.4 -6.5,15.39 3.4,3.5 8.7,9.42 10.2,10.81 1.5,1.2 3.4,2.39 6.4,2.55 0.6,0.04 1.1,0.04 1.1,1 0,0.04 0,0.54 -0.7,0.54 -1.5,0 -3.1,-0.15 -4.7,-0.15 -1.8,0 -3.7,0.15 -5.5,0.15 -0.3,0 -0.9,0 -0.9,-1 0,-0.34 0.2,-0.5 0.6,-0.54 0.4,-0.05 2,-0.16 2,-1.55 0,-0.7 -0.6,-1.34 -1,-1.8 z"
             id="path4153" /></g>      </g>
    </g>
    <g
       transform="translate(-152.46872,-302.99688)"
       id="g4177">
      <g
         style="font-style:normal;font-variant:normal;font-weight:normal;font-stretch:normal;letter-spacing:normal;word-spacing:normal;text-anchor:start;fill:none;fill-opacity:1;fill-rule:evenodd;stroke:#000000;stroke-linecap:butt;stroke-linejoin:miter;stroke-miterlimit:10.43299961;stroke-dasharray:none;stroke-dashoffset:0;stroke-opacity:1"
         id="g4179"
         transform="matrix(1.0629921,0,0,-1.0629921,-186.02362,789.27165)"
         xml:space="preserve"
         stroke-miterlimit="10.433"
         font-style="normal"
         font-variant="normal"
         font-weight="normal"
         font-stretch="normal"
         font-size-adjust="none"
         letter-spacing="normal"
         word-spacing="normal"><path
           style="fill:#000000;stroke-width:0"
           inkscape:connector-curvature="0"
           d="m 1202.7,376.68 0,0.06 0,0.06 0,0.13 0.1,0.11 0,0.11 0,0.11 0.1,0.1 0,0.09 0,0.09 0,0.08 0.1,0.08 0,0.07 0,0.07 0.1,0.06 0,0.06 0,0.06 0.1,0.05 0,0.05 0,0.05 0.1,0.04 0,0.04 0,0.03 0.1,0.03 0,0.03 0,0.03 0.1,0.03 0,0.02 0.1,0.02 0,0.02 0.1,0.02 0,0.01 0.1,0.02 0,0.01 c 0.5,0.11 2.1,0.11 3.2,0.11 5,0 7.2,-0.2 7.2,-4.09 0,-0.74 -0.2,-2.69 -0.4,-3.99 0,-0.19 -0.1,-0.8 -0.1,-0.94 0,-0.29 0.1,-0.65 0.6,-0.65 0.5,0 0.6,0.4 0.7,1.15 l 1.4,8.66 c 0,0.2 0.1,0.7 0.1,0.86 0,0.55 -0.5,0.55 -1.4,0.55 l -27.6,0 c -1.2,0 -1.3,-0.07 -1.6,-1 l -3,-8.77 c -0.1,-0.11 -0.3,-0.8 -0.3,-0.91 0,-0.29 0.2,-0.54 0.6,-0.54 0.5,0 0.5,0.25 0.8,1.04 2.7,7.72 4,8.63 11.4,8.63 l 1.9,0 c 1.4,0 1.4,-0.2 1.4,-0.59 0,-0.32 -0.1,-0.91 -0.2,-1.05 l -6.6,-26.61 c -0.5,-1.84 -0.6,-2.39 -6,-2.39 -1.8,0 -2.1,0 -2.1,-0.95 0,-0.6 0.6,-0.6 0.9,-0.6 1.3,0 2.7,0.1 4.1,0.1 1.4,0 2.8,0.06 4.2,0.06 1.4,0 2.8,-0.06 4.2,-0.06 1.4,0 2.9,-0.1 4.3,-0.1 0.5,0 1.1,0 1.1,1 0,0.55 -0.4,0.55 -1.7,0.55 -1.3,0 -1.9,0 -3.2,0.09 -1.5,0.16 -1.9,0.3 -1.9,1.1 0,0.06 0,0.31 0.2,1.04 z"
           id="path4181" /><path
           style="fill:#000000;stroke-width:0"
           inkscape:connector-curvature="0"
           d="m 1227.1,365.27 0,0.14 0,0.13 -0.1,0.13 0,0.13 0,0.13 0,0.12 -0.1,0.13 0,0.12 -0.1,0.11 0,0.12 -0.1,0.11 -0.1,0.1 0,0.11 -0.1,0.1 -0.1,0.09 -0.1,0.09 -0.1,0.09 -0.1,0.09 -0.1,0.07 -0.1,0.08 -0.1,0.07 -0.1,0.06 -0.1,0.06 -0.1,0.05 -0.2,0.05 -0.1,0.04 -0.1,0.04 -0.1,0.03 -0.2,0.02 -0.1,0.02 -0.1,0.01 -0.2,0 c -1.4,0 -2.6,-1.19 -2.6,-2.64 0,-1.44 1.2,-2.64 2.6,-2.64 1.5,0 2.7,1.2 2.7,2.64 z"
           id="path4183" /><path
           style="fill:#000000;stroke-width:0"
           inkscape:connector-curvature="0"
           d="m 1226.1,346.99 0,-0.14 0,-0.15 0,-0.17 0,-0.18 0,-0.19 0,-0.2 0,-0.21 0,-0.23 0,-0.24 -0.1,-0.25 0,-0.25 0,-0.27 -0.1,-0.27 0,-0.29 -0.1,-0.29 -0.1,-0.29 0,-0.31 -0.1,-0.31 -0.1,-0.32 -0.1,-0.32 -0.2,-0.33 -0.1,-0.33 -0.1,-0.33 -0.2,-0.34 -0.2,-0.34 -0.2,-0.34 -0.2,-0.35 -0.2,-0.34 -0.2,-0.35 -0.3,-0.35 -0.3,-0.34 -0.3,-0.35 c -0.3,-0.39 -0.3,-0.5 -0.3,-0.64 0,-0.36 0.2,-0.55 0.5,-0.55 0.5,0 4.1,3.99 4.1,9.77 0,1.44 -0.1,5.12 -2.8,5.12 -1.7,0 -2.6,-1.34 -2.6,-2.64 0,-1.29 0.8,-2.64 2.6,-2.64 0.3,0 0.4,0 0.4,0.05 0.4,0.05 0.9,0.15 1.3,0.5 z"
           id="path4185" /><path
           style="fill:#000000;stroke-width:0"
           inkscape:connector-curvature="0"
           d="m 1263.8,366.93 -4.2,9.9 c -0.2,0.41 -0.3,0.6 -0.3,0.64 0,0.32 0.9,1.25 3,1.46 0.5,0.04 1,0.09 1,0.95 0,0.59 -0.6,0.59 -0.8,0.59 -2,0 -4.2,-0.15 -6.3,-0.15 -1.2,0 -4.3,0.15 -5.5,0.15 -0.3,0 -0.9,0 -0.9,-1 0,-0.54 0.4,-0.54 1.1,-0.54 3,0 3.3,-0.5 3.7,-1.6 l 5.9,-13.9 -10.5,-11.32 -0.6,-0.54 c -2.5,-2.64 -4.8,-3.44 -7.4,-3.58 -0.6,-0.05 -1.1,-0.05 -1.1,-1 0,-0.05 0,-0.55 0.7,-0.55 1.5,0 3.1,0.16 4.7,0.16 1.8,0 3.8,-0.16 5.5,-0.16 0.4,0 1,0 1,1 0,0.5 -0.6,0.55 -0.6,0.55 -0.5,0.05 -2,0.14 -2,1.55 0,0.79 0.7,1.59 1.3,2.23 l 5.1,5.39 4.5,4.88 5,-11.91 c 0.2,-0.55 0.2,-0.59 0.2,-0.7 0,-0.39 -0.9,-1.24 -2.9,-1.44 -0.5,-0.05 -0.9,-0.11 -0.9,-0.95 0,-0.6 0.5,-0.6 0.7,-0.6 1.4,0 4.9,0.16 6.3,0.16 1.2,0 4.3,-0.16 5.5,-0.16 0.4,0 1,0 1,0.95 0,0.6 -0.5,0.6 -0.9,0.6 -3.4,0.05 -3.5,0.2 -4.3,2.19 -2,4.64 -5.3,12.4 -6.4,15.39 3.4,3.5 8.6,9.42 10.2,10.81 1.4,1.2 3.3,2.39 6.3,2.55 0.7,0.04 1.1,0.04 1.1,1 0,0.04 0,0.54 -0.7,0.54 -1.5,0 -3.1,-0.15 -4.6,-0.15 -1.9,0 -3.8,0.15 -5.6,0.15 -0.3,0 -0.9,0 -0.9,-1 0,-0.34 0.2,-0.5 0.6,-0.54 0.4,-0.05 2,-0.16 2,-1.55 0,-0.7 -0.6,-1.34 -1,-1.8 z"
           id="path4187" /><path
           style="fill:#000000;stroke-width:0"
           inkscape:connector-curvature="0"
           d="m 1294.9,383.41 0.1,0.06 0,0.05 0,0.05 0,0.05 0.1,0.04 0,0.05 0,0.04 0,0.05 0,0.04 0,0.04 0.1,0.04 0,0.03 0,0.04 0,0.03 0,0.04 0,0.03 0,0.03 0,0.03 0,0.04 0,0.02 0,0.03 0,0.03 0,0.03 0.1,0.03 0,0.05 0,0.05 0,0.05 0,0.04 c 0,1.08 -1,1.93 -2.1,1.93 -1.3,0 -1.7,-1.1 -1.9,-1.65 l -4.6,-15.09 c 0,-0.06 -0.2,-0.51 -0.2,-0.56 0,-0.41 1.1,-0.77 1.4,-0.77 0.2,0 0.3,0.08 0.5,0.6 z"
           id="path4189" /></g>    </g>
    <path
       inkscape:connector-curvature="0"
       id="path4210"
       d="M 198.08144,199.82663 907.4554,110.02694"
       style="fill:none;fill-rule:evenodd;stroke:#000000;stroke-width:1.5;stroke-linecap:butt;stroke-linejoin:miter;stroke-miterlimit:4;stroke-dasharray:none;stroke-opacity:1;marker-end:url(#Arrow1Lend)"
       sodipodi:nodetypes="cc" />
    <g
       id="g6061"
       transform="translate(199.30517,36.026009)">
      <rect
         rx="0"
         style="opacity:1;fill:#f5f5f5 icc-color(Generic-CMYK-Profile, 0, 0, 0, 0);fill-opacity:1;fill-rule:nonzero;stroke:#898b8a icc-color(Generic-CMYK-Profile, 0, 0, 0, 0.5);stroke-width:1;stroke-linecap:butt;stroke-linejoin:round;stroke-miterlimit:4;stroke-dasharray:none;stroke-dashoffset:0;stroke-opacity:1"
         id="rect5822"
         width="133.0795"
         height="63.333038"
         x="445.3519"
         y="66.889313"
         ry="6.3547597" />
      <g
         transform="translate(-619.99597,-310.28852)"
         id="g5747">
        <g
           style="font-style:normal;font-variant:normal;font-weight:normal;font-stretch:normal;letter-spacing:normal;word-spacing:normal;text-anchor:start;fill:none;fill-opacity:1;fill-rule:evenodd;stroke:#000000;stroke-linecap:butt;stroke-linejoin:miter;stroke-miterlimit:10.43299961;stroke-dasharray:none;stroke-dashoffset:0;stroke-opacity:1"
           id="g5749"
           transform="matrix(1.0629921,0,0,-1.0629921,-186.02362,789.27165)"
           xml:space="preserve"
           stroke-miterlimit="10.433"
           font-style="normal"
           font-variant="normal"
           font-weight="normal"
           font-stretch="normal"
           font-size-adjust="none"
           letter-spacing="normal"
           word-spacing="normal"><path
             style="fill:#000000;stroke-width:0"
             inkscape:connector-curvature="0"
             d="m 1200.5,376.68 0,0.06 0.1,0.06 0,0.13 0,0.11 0,0.11 0.1,0.11 0,0.1 0,0.09 0.1,0.09 0,0.08 0,0.08 0,0.07 0.1,0.07 0,0.06 0,0.06 0.1,0.06 0,0.05 0,0.05 0.1,0.05 0,0.04 0,0.04 0.1,0.03 0,0.03 0,0.03 0.1,0.03 0,0.03 0.1,0.02 0,0.02 0.1,0.02 0,0.02 0.1,0.01 0,0.02 0.1,0.01 c 0.4,0.11 2.1,0.11 3.1,0.11 5,0 7.3,-0.2 7.3,-4.09 0,-0.74 -0.2,-2.69 -0.4,-3.99 -0.1,-0.19 -0.2,-0.8 -0.2,-0.94 0,-0.29 0.2,-0.65 0.6,-0.65 0.6,0 0.7,0.4 0.8,1.15 l 1.3,8.66 c 0.1,0.2 0.1,0.7 0.1,0.86 0,0.55 -0.5,0.55 -1.3,0.55 l -27.7,0 c -1.2,0 -1.2,-0.07 -1.6,-1 l -3,-8.77 c 0,-0.11 -0.3,-0.8 -0.3,-0.91 0,-0.29 0.3,-0.54 0.6,-0.54 0.5,0 0.6,0.25 0.9,1.04 2.7,7.72 4,8.63 11.3,8.63 l 2,0 c 1.4,0 1.4,-0.2 1.4,-0.59 0,-0.32 -0.2,-0.91 -0.2,-1.05 l -6.7,-26.61 c -0.5,-1.84 -0.6,-2.39 -5.9,-2.39 -1.8,0 -2.1,0 -2.1,-0.95 0,-0.6 0.5,-0.6 0.8,-0.6 1.4,0 2.8,0.1 4.1,0.1 1.4,0 2.9,0.06 4.2,0.06 1.4,0 2.8,-0.06 4.2,-0.06 1.4,0 2.9,-0.1 4.3,-0.1 0.5,0 1.1,0 1.1,1 0,0.55 -0.4,0.55 -1.7,0.55 -1.2,0 -1.9,0 -3.2,0.09 -1.4,0.16 -1.8,0.3 -1.8,1.1 0,0.06 0,0.31 0.2,1.04 z"
             id="path5751" /><path
             style="fill:#000000;stroke-width:0"
             inkscape:connector-curvature="0"
             d="m 1224.9,365.27 0,0.14 0,0.13 0,0.13 0,0.13 -0.1,0.13 0,0.12 0,0.13 -0.1,0.12 0,0.11 -0.1,0.12 -0.1,0.11 0,0.1 -0.1,0.11 -0.1,0.1 -0.1,0.09 -0.1,0.09 0,0.09 -0.1,0.09 -0.1,0.07 -0.1,0.08 -0.2,0.07 -0.1,0.06 -0.1,0.06 -0.1,0.05 -0.1,0.05 -0.1,0.04 -0.2,0.04 -0.1,0.03 -0.1,0.02 -0.2,0.02 -0.1,0.01 -0.1,0 c -1.5,0 -2.7,-1.19 -2.7,-2.64 0,-1.44 1.2,-2.64 2.7,-2.64 1.4,0 2.6,1.2 2.6,2.64 z"
             id="path5753" /><path
             style="fill:#000000;stroke-width:0"
             inkscape:connector-curvature="0"
             d="m 1224,346.99 0,-0.14 0,-0.15 0,-0.17 0,-0.18 0,-0.19 0,-0.2 -0.1,-0.21 0,-0.23 0,-0.24 0,-0.25 0,-0.25 -0.1,-0.27 0,-0.27 -0.1,-0.29 0,-0.29 -0.1,-0.29 -0.1,-0.31 -0.1,-0.31 -0.1,-0.32 -0.1,-0.32 -0.1,-0.33 -0.2,-0.33 -0.1,-0.33 -0.2,-0.34 -0.1,-0.34 -0.2,-0.34 -0.2,-0.35 -0.3,-0.34 -0.2,-0.35 -0.2,-0.35 -0.3,-0.34 -0.3,-0.35 c -0.4,-0.39 -0.4,-0.5 -0.4,-0.64 0,-0.36 0.3,-0.55 0.5,-0.55 0.6,0 4.2,3.99 4.2,9.77 0,1.44 -0.1,5.12 -2.8,5.12 -1.8,0 -2.7,-1.34 -2.7,-2.64 0,-1.29 0.9,-2.64 2.7,-2.64 0.2,0 0.3,0 0.4,0.05 0.3,0.05 0.9,0.15 1.3,0.5 z"
             id="path5755" /><path
             style="fill:#000000;stroke-width:0"
             inkscape:connector-curvature="0"
             d="m 1261.6,366.93 -4.2,9.9 c -0.1,0.41 -0.2,0.6 -0.2,0.64 0,0.32 0.8,1.25 2.9,1.46 0.5,0.04 1,0.09 1,0.95 0,0.59 -0.6,0.59 -0.7,0.59 -2.1,0 -4.2,-0.15 -6.3,-0.15 -1.3,0 -4.3,0.15 -5.6,0.15 -0.3,0 -0.9,0 -0.9,-1 0,-0.54 0.5,-0.54 1.2,-0.54 2.9,0 3.2,-0.5 3.7,-1.6 l 5.9,-13.9 -10.6,-11.32 -0.6,-0.54 c -2.4,-2.64 -4.8,-3.44 -7.3,-3.58 -0.7,-0.05 -1.1,-0.05 -1.1,-1 0,-0.05 0,-0.55 0.6,-0.55 1.5,0 3.2,0.16 4.7,0.16 1.8,0 3.8,-0.16 5.6,-0.16 0.3,0 0.9,0 0.9,1 0,0.5 -0.5,0.55 -0.6,0.55 -0.5,0.05 -2,0.14 -2,1.55 0,0.79 0.8,1.59 1.3,2.23 l 5.1,5.39 4.5,4.88 5,-11.91 c 0.2,-0.55 0.3,-0.59 0.3,-0.7 0,-0.39 -1,-1.24 -2.9,-1.44 -0.5,-0.05 -1,-0.11 -1,-0.95 0,-0.6 0.6,-0.6 0.7,-0.6 1.4,0 4.9,0.16 6.3,0.16 1.3,0 4.3,-0.16 5.6,-0.16 0.3,0 0.9,0 0.9,0.95 0,0.6 -0.5,0.6 -0.9,0.6 -3.3,0.05 -3.4,0.2 -4.3,2.19 -1.9,4.64 -5.3,12.4 -6.4,15.39 3.4,3.5 8.6,9.42 10.2,10.81 1.5,1.2 3.4,2.39 6.3,2.55 0.7,0.04 1.1,0.04 1.1,1 0,0.04 0,0.54 -0.6,0.54 -1.5,0 -3.2,-0.15 -4.7,-0.15 -1.8,0 -3.7,0.15 -5.5,0.15 -0.3,0 -1,0 -1,-1 0,-0.34 0.3,-0.5 0.6,-0.54 0.5,-0.05 2,-0.16 2,-1.55 0,-0.7 -0.5,-1.34 -0.9,-1.8 z"
             id="path5757" /><path
             style="fill:#000000;stroke-width:0"
             inkscape:connector-curvature="0"
             d="m 1297.2,344.6 0,1.25 -3.9,0 0,15.54 c 0,0.72 0,0.97 -0.8,0.97 -0.4,0 -0.6,0 -0.9,-0.48 l -11.5,-16.03 0,-1.25 10.2,0 0.3,1.25 -9.2,0 9.2,12.75 0,-12.75 -0.3,-1.25 0,-2.86 c 0,-1.19 0,-1.61 -2.8,-1.61 l -0.9,0 0,-1.25 c 1.7,0.06 3.9,0.14 5.2,0.14 1.3,0 3.5,-0.08 5.3,-0.14 l 0,1.25 -1,0 c -2.8,0 -2.8,0.42 -2.8,1.61 l 0,2.86 z"
             id="path5759" /></g>      </g>
    </g>
    <g
       id="g6071"
       transform="translate(159.79278,40.674524)">
      <rect
         ry="6.3547597"
         y="85.483368"
         x="340.76025"
         height="63.333038"
         width="133.0795"
         id="rect5820"
         style="opacity:1;fill:#f5f5f5 icc-color(Generic-CMYK-Profile, 0, 0, 0, 0);fill-opacity:1;fill-rule:nonzero;stroke:#898b8a icc-color(Generic-CMYK-Profile, 0, 0, 0, 0.5);stroke-width:1;stroke-linecap:butt;stroke-linejoin:round;stroke-miterlimit:4;stroke-dasharray:none;stroke-dashoffset:0;stroke-opacity:1"
         rx="0" />
      <g
         transform="translate(-724.00654,-289.95126)"
         id="g5635">
        <g
           style="font-style:normal;font-variant:normal;font-weight:normal;font-stretch:normal;letter-spacing:normal;word-spacing:normal;text-anchor:start;fill:none;fill-opacity:1;fill-rule:evenodd;stroke:#000000;stroke-linecap:butt;stroke-linejoin:miter;stroke-miterlimit:10.43299961;stroke-dasharray:none;stroke-dashoffset:0;stroke-opacity:1"
           word-spacing="normal"
           letter-spacing="normal"
           font-size-adjust="none"
           font-stretch="normal"
           font-weight="normal"
           font-variant="normal"
           font-style="normal"
           stroke-miterlimit="10.433"
           xml:space="preserve"
           transform="matrix(1.0629921,0,0,-1.0629921,-186.02362,789.27165)"
           id="g5637"><path
             style="fill:#000000;stroke-width:0"
             inkscape:connector-curvature="0"
             id="path5639"
             d="m 1200.5,376.68 0,0.06 0.1,0.06 0,0.13 0,0.11 0,0.11 0.1,0.11 0,0.1 0,0.09 0.1,0.09 0,0.08 0,0.08 0,0.07 0.1,0.07 0,0.06 0,0.06 0.1,0.06 0,0.05 0,0.05 0.1,0.05 0,0.04 0,0.04 0.1,0.03 0,0.03 0,0.03 0.1,0.03 0,0.03 0.1,0.02 0,0.02 0.1,0.02 0,0.02 0.1,0.01 0,0.02 0.1,0.01 c 0.4,0.11 2.1,0.11 3.1,0.11 5,0 7.3,-0.2 7.3,-4.09 0,-0.74 -0.2,-2.69 -0.4,-3.99 -0.1,-0.19 -0.2,-0.8 -0.2,-0.94 0,-0.29 0.2,-0.65 0.6,-0.65 0.6,0 0.7,0.4 0.8,1.15 l 1.3,8.66 c 0.1,0.2 0.1,0.7 0.1,0.86 0,0.55 -0.5,0.55 -1.3,0.55 l -27.7,0 c -1.2,0 -1.2,-0.07 -1.6,-1 l -3,-8.77 c 0,-0.11 -0.3,-0.8 -0.3,-0.91 0,-0.29 0.3,-0.54 0.6,-0.54 0.5,0 0.6,0.25 0.9,1.04 2.7,7.72 4,8.63 11.3,8.63 l 2,0 c 1.4,0 1.4,-0.2 1.4,-0.59 0,-0.32 -0.2,-0.91 -0.2,-1.05 l -6.7,-26.61 c -0.5,-1.84 -0.6,-2.39 -5.9,-2.39 -1.8,0 -2.1,0 -2.1,-0.95 0,-0.6 0.5,-0.6 0.8,-0.6 1.4,0 2.8,0.1 4.1,0.1 1.4,0 2.9,0.06 4.2,0.06 1.4,0 2.8,-0.06 4.2,-0.06 1.4,0 2.9,-0.1 4.3,-0.1 0.5,0 1.1,0 1.1,1 0,0.55 -0.4,0.55 -1.7,0.55 -1.2,0 -1.9,0 -3.2,0.09 -1.4,0.16 -1.8,0.3 -1.8,1.1 0,0.06 0,0.31 0.2,1.04 z" /><path
             style="fill:#000000;stroke-width:0"
             inkscape:connector-curvature="0"
             id="path5641"
             d="m 1224.9,365.27 0,0.14 0,0.13 0,0.13 0,0.13 -0.1,0.13 0,0.12 0,0.13 -0.1,0.12 0,0.11 -0.1,0.12 -0.1,0.11 0,0.1 -0.1,0.11 -0.1,0.1 -0.1,0.09 -0.1,0.09 0,0.09 -0.1,0.09 -0.1,0.07 -0.1,0.08 -0.2,0.07 -0.1,0.06 -0.1,0.06 -0.1,0.05 -0.1,0.05 -0.1,0.04 -0.2,0.04 -0.1,0.03 -0.1,0.02 -0.2,0.02 -0.1,0.01 -0.1,0 c -1.5,0 -2.7,-1.19 -2.7,-2.64 0,-1.44 1.2,-2.64 2.7,-2.64 1.4,0 2.6,1.2 2.6,2.64 z" /><path
             style="fill:#000000;stroke-width:0"
             inkscape:connector-curvature="0"
             id="path5643"
             d="m 1224,346.99 0,-0.14 0,-0.15 0,-0.17 0,-0.18 0,-0.19 0,-0.2 -0.1,-0.21 0,-0.23 0,-0.24 0,-0.25 0,-0.25 -0.1,-0.27 0,-0.27 -0.1,-0.29 0,-0.29 -0.1,-0.29 -0.1,-0.31 -0.1,-0.31 -0.1,-0.32 -0.1,-0.32 -0.1,-0.33 -0.2,-0.33 -0.1,-0.33 -0.2,-0.34 -0.1,-0.34 -0.2,-0.34 -0.2,-0.35 -0.3,-0.34 -0.2,-0.35 -0.2,-0.35 -0.3,-0.34 -0.3,-0.35 c -0.4,-0.39 -0.4,-0.5 -0.4,-0.64 0,-0.36 0.3,-0.55 0.5,-0.55 0.6,0 4.2,3.99 4.2,9.77 0,1.44 -0.1,5.12 -2.8,5.12 -1.8,0 -2.7,-1.34 -2.7,-2.64 0,-1.29 0.9,-2.64 2.7,-2.64 0.2,0 0.3,0 0.4,0.05 0.3,0.05 0.9,0.15 1.3,0.5 z" /><path
             style="fill:#000000;stroke-width:0"
             inkscape:connector-curvature="0"
             id="path5645"
             d="m 1261.6,366.93 -4.2,9.9 c -0.1,0.41 -0.2,0.6 -0.2,0.64 0,0.32 0.8,1.25 2.9,1.46 0.5,0.04 1,0.09 1,0.95 0,0.59 -0.6,0.59 -0.7,0.59 -2.1,0 -4.2,-0.15 -6.3,-0.15 -1.3,0 -4.3,0.15 -5.6,0.15 -0.3,0 -0.9,0 -0.9,-1 0,-0.54 0.5,-0.54 1.2,-0.54 2.9,0 3.2,-0.5 3.7,-1.6 l 5.9,-13.9 -10.6,-11.32 -0.6,-0.54 c -2.4,-2.64 -4.8,-3.44 -7.3,-3.58 -0.7,-0.05 -1.1,-0.05 -1.1,-1 0,-0.05 0,-0.55 0.6,-0.55 1.5,0 3.2,0.16 4.7,0.16 1.8,0 3.8,-0.16 5.6,-0.16 0.3,0 0.9,0 0.9,1 0,0.5 -0.5,0.55 -0.6,0.55 -0.5,0.05 -2,0.14 -2,1.55 0,0.79 0.8,1.59 1.3,2.23 l 5.1,5.39 4.5,4.88 5,-11.91 c 0.2,-0.55 0.3,-0.59 0.3,-0.7 0,-0.39 -1,-1.24 -2.9,-1.44 -0.5,-0.05 -1,-0.11 -1,-0.95 0,-0.6 0.6,-0.6 0.7,-0.6 1.4,0 4.9,0.16 6.3,0.16 1.3,0 4.3,-0.16 5.6,-0.16 0.3,0 0.9,0 0.9,0.95 0,0.6 -0.5,0.6 -0.9,0.6 -3.3,0.05 -3.4,0.2 -4.3,2.19 -1.9,4.64 -5.3,12.4 -6.4,15.39 3.4,3.5 8.6,9.42 10.2,10.81 1.5,1.2 3.4,2.39 6.3,2.55 0.7,0.04 1.1,0.04 1.1,1 0,0.04 0,0.54 -0.6,0.54 -1.5,0 -3.2,-0.15 -4.7,-0.15 -1.8,0 -3.7,0.15 -5.5,0.15 -0.3,0 -1,0 -1,-1 0,-0.34 0.3,-0.5 0.6,-0.54 0.5,-0.05 2,-0.16 2,-1.55 0,-0.7 -0.5,-1.34 -0.9,-1.8 z" /><path
             style="fill:#000000;stroke-width:0"
             inkscape:connector-curvature="0"
             id="path5647"
             d="m 1288.2,350.52 0.3,-0.01 0.2,-0.01 0.3,-0.03 0.2,-0.04 0.2,-0.05 0.3,-0.06 0.2,-0.07 0.2,-0.08 0.2,-0.1 0.2,-0.1 0.2,-0.12 0.2,-0.12 0.2,-0.14 0.2,-0.15 0.1,-0.16 0.2,-0.17 0.1,-0.18 0.2,-0.19 0.1,-0.21 0.1,-0.21 0.2,-0.23 0.1,-0.23 0.1,-0.25 0.1,-0.25 0,-0.27 0.1,-0.28 0.1,-0.29 0,-0.3 0.1,-0.31 0,-0.32 0,-0.34 0,-0.34 c 0,-4.33 -2.5,-5.61 -4.5,-5.61 -1.4,0 -4.5,0.38 -6,2.44 1.7,0.06 2.1,1.22 2.1,1.95 0,1.11 -0.9,1.91 -1.9,1.91 -1,0 -2,-0.6 -2,-2.02 0,-3.28 3.6,-5.4 7.8,-5.4 4.9,0 8.2,3.25 8.2,6.73 0,2.72 -2.2,5.44 -6,6.23 3.6,1.33 5,3.94 5,6.07 0,2.75 -3.2,4.81 -7.1,4.81 -3.9,0 -6.8,-1.89 -6.8,-4.67 0,-1.19 0.7,-1.85 1.8,-1.85 1.1,0 1.8,0.8 1.8,1.77 0,1.02 -0.7,1.75 -1.8,1.81 1.2,1.55 3.6,1.92 4.9,1.92 1.6,0 3.8,-0.76 3.8,-3.79 0,-1.47 -0.5,-3.07 -1.4,-4.14 -1.2,-1.33 -2.1,-1.41 -3.9,-1.5 -0.9,-0.08 -0.9,-0.08 -1.1,-0.11 -0.1,0 -0.4,-0.07 -0.4,-0.46 0,-0.48 0.4,-0.48 0.9,-0.48 z" /></g>      </g>
    </g>
    <g
       id="g6081"
       transform="translate(122.60464,32.539619)">
      <rect
         rx="0"
         style="opacity:1;fill:#f5f5f5 icc-color(Generic-CMYK-Profile, 0, 0, 0, 0);fill-opacity:1;fill-rule:nonzero;stroke:#898b8a icc-color(Generic-CMYK-Profile, 0, 0, 0, 0.5);stroke-width:1;stroke-linecap:butt;stroke-linejoin:round;stroke-miterlimit:4;stroke-dasharray:none;stroke-dashoffset:0;stroke-opacity:1"
         id="rect5818"
         width="133.0795"
         height="63.333038"
         x="230.35797"
         y="109.88807"
         ry="6.3547597" />
      <g
         transform="translate(-833.82776,-265.54654)"
         id="g5537">
        <g
           style="font-style:normal;font-variant:normal;font-weight:normal;font-stretch:normal;letter-spacing:normal;word-spacing:normal;text-anchor:start;fill:none;fill-opacity:1;fill-rule:evenodd;stroke:#000000;stroke-linecap:butt;stroke-linejoin:miter;stroke-miterlimit:10.43299961;stroke-dasharray:none;stroke-dashoffset:0;stroke-opacity:1"
           id="g5539"
           transform="matrix(1.0629921,0,0,-1.0629921,-186.02362,789.27165)"
           xml:space="preserve"
           stroke-miterlimit="10.433"
           font-style="normal"
           font-variant="normal"
           font-weight="normal"
           font-stretch="normal"
           font-size-adjust="none"
           letter-spacing="normal"
           word-spacing="normal"><path
             style="fill:#000000;stroke-width:0"
             inkscape:connector-curvature="0"
             d="m 1200.5,376.68 0,0.06 0.1,0.06 0,0.13 0,0.11 0,0.11 0.1,0.11 0,0.1 0,0.09 0.1,0.09 0,0.08 0,0.08 0,0.07 0.1,0.07 0,0.06 0,0.06 0.1,0.06 0,0.05 0,0.05 0.1,0.05 0,0.04 0,0.04 0.1,0.03 0,0.03 0,0.03 0.1,0.03 0,0.03 0.1,0.02 0,0.02 0.1,0.02 0,0.02 0.1,0.01 0,0.02 0.1,0.01 c 0.4,0.11 2.1,0.11 3.1,0.11 5,0 7.3,-0.2 7.3,-4.09 0,-0.74 -0.2,-2.69 -0.4,-3.99 -0.1,-0.19 -0.2,-0.8 -0.2,-0.94 0,-0.29 0.2,-0.65 0.6,-0.65 0.6,0 0.7,0.4 0.8,1.15 l 1.3,8.66 c 0.1,0.2 0.1,0.7 0.1,0.86 0,0.55 -0.5,0.55 -1.3,0.55 l -27.7,0 c -1.2,0 -1.2,-0.07 -1.6,-1 l -3,-8.77 c 0,-0.11 -0.3,-0.8 -0.3,-0.91 0,-0.29 0.3,-0.54 0.6,-0.54 0.5,0 0.6,0.25 0.9,1.04 2.7,7.72 4,8.63 11.3,8.63 l 2,0 c 1.4,0 1.4,-0.2 1.4,-0.59 0,-0.32 -0.2,-0.91 -0.2,-1.05 l -6.7,-26.61 c -0.5,-1.84 -0.6,-2.39 -5.9,-2.39 -1.8,0 -2.1,0 -2.1,-0.95 0,-0.6 0.5,-0.6 0.8,-0.6 1.4,0 2.8,0.1 4.1,0.1 1.4,0 2.9,0.06 4.2,0.06 1.4,0 2.8,-0.06 4.2,-0.06 1.4,0 2.9,-0.1 4.3,-0.1 0.5,0 1.1,0 1.1,1 0,0.55 -0.4,0.55 -1.7,0.55 -1.2,0 -1.9,0 -3.2,0.09 -1.4,0.16 -1.8,0.3 -1.8,1.1 0,0.06 0,0.31 0.2,1.04 z"
             id="path5541" /><path
             style="fill:#000000;stroke-width:0"
             inkscape:connector-curvature="0"
             d="m 1224.9,365.27 0,0.14 0,0.13 0,0.13 0,0.13 -0.1,0.13 0,0.12 0,0.13 -0.1,0.12 0,0.11 -0.1,0.12 -0.1,0.11 0,0.1 -0.1,0.11 -0.1,0.1 -0.1,0.09 -0.1,0.09 0,0.09 -0.1,0.09 -0.1,0.07 -0.1,0.08 -0.2,0.07 -0.1,0.06 -0.1,0.06 -0.1,0.05 -0.1,0.05 -0.1,0.04 -0.2,0.04 -0.1,0.03 -0.1,0.02 -0.2,0.02 -0.1,0.01 -0.1,0 c -1.5,0 -2.7,-1.19 -2.7,-2.64 0,-1.44 1.2,-2.64 2.7,-2.64 1.4,0 2.6,1.2 2.6,2.64 z"
             id="path5543" /><path
             style="fill:#000000;stroke-width:0"
             inkscape:connector-curvature="0"
             d="m 1224,346.99 0,-0.14 0,-0.15 0,-0.17 0,-0.18 0,-0.19 0,-0.2 -0.1,-0.21 0,-0.23 0,-0.24 0,-0.25 0,-0.25 -0.1,-0.27 0,-0.27 -0.1,-0.29 0,-0.29 -0.1,-0.29 -0.1,-0.31 -0.1,-0.31 -0.1,-0.32 -0.1,-0.32 -0.1,-0.33 -0.2,-0.33 -0.1,-0.33 -0.2,-0.34 -0.1,-0.34 -0.2,-0.34 -0.2,-0.35 -0.3,-0.34 -0.2,-0.35 -0.2,-0.35 -0.3,-0.34 -0.3,-0.35 c -0.4,-0.39 -0.4,-0.5 -0.4,-0.64 0,-0.36 0.3,-0.55 0.5,-0.55 0.6,0 4.2,3.99 4.2,9.77 0,1.44 -0.1,5.12 -2.8,5.12 -1.8,0 -2.7,-1.34 -2.7,-2.64 0,-1.29 0.9,-2.64 2.7,-2.64 0.2,0 0.3,0 0.4,0.05 0.3,0.05 0.9,0.15 1.3,0.5 z"
             id="path5545" /><path
             style="fill:#000000;stroke-width:0"
             inkscape:connector-curvature="0"
             d="m 1261.6,366.93 -4.2,9.9 c -0.1,0.41 -0.2,0.6 -0.2,0.64 0,0.32 0.8,1.25 2.9,1.46 0.5,0.04 1,0.09 1,0.95 0,0.59 -0.6,0.59 -0.7,0.59 -2.1,0 -4.2,-0.15 -6.3,-0.15 -1.3,0 -4.3,0.15 -5.6,0.15 -0.3,0 -0.9,0 -0.9,-1 0,-0.54 0.5,-0.54 1.2,-0.54 2.9,0 3.2,-0.5 3.7,-1.6 l 5.9,-13.9 -10.6,-11.32 -0.6,-0.54 c -2.4,-2.64 -4.8,-3.44 -7.3,-3.58 -0.7,-0.05 -1.1,-0.05 -1.1,-1 0,-0.05 0,-0.55 0.6,-0.55 1.5,0 3.2,0.16 4.7,0.16 1.8,0 3.8,-0.16 5.6,-0.16 0.3,0 0.9,0 0.9,1 0,0.5 -0.5,0.55 -0.6,0.55 -0.5,0.05 -2,0.14 -2,1.55 0,0.79 0.8,1.59 1.3,2.23 l 5.1,5.39 4.5,4.88 5,-11.91 c 0.2,-0.55 0.3,-0.59 0.3,-0.7 0,-0.39 -1,-1.24 -2.9,-1.44 -0.5,-0.05 -1,-0.11 -1,-0.95 0,-0.6 0.6,-0.6 0.7,-0.6 1.4,0 4.9,0.16 6.3,0.16 1.3,0 4.3,-0.16 5.6,-0.16 0.3,0 0.9,0 0.9,0.95 0,0.6 -0.5,0.6 -0.9,0.6 -3.3,0.05 -3.4,0.2 -4.3,2.19 -1.9,4.64 -5.3,12.4 -6.4,15.39 3.4,3.5 8.6,9.42 10.2,10.81 1.5,1.2 3.4,2.39 6.3,2.55 0.7,0.04 1.1,0.04 1.1,1 0,0.04 0,0.54 -0.6,0.54 -1.5,0 -3.2,-0.15 -4.7,-0.15 -1.8,0 -3.7,0.15 -5.5,0.15 -0.3,0 -1,0 -1,-1 0,-0.34 0.3,-0.5 0.6,-0.54 0.5,-0.05 2,-0.16 2,-1.55 0,-0.7 -0.5,-1.34 -0.9,-1.8 z"
             id="path5547" /><path
             style="fill:#000000;stroke-width:0"
             inkscape:connector-curvature="0"
             d="m 1296.3,345.22 -1.2,0 c -0.1,-0.76 -0.4,-2.83 -0.9,-3.17 -0.3,-0.2 -2.9,-0.2 -3.4,-0.2 l -6.4,0 c 3.6,3.23 4.8,4.2 6.9,5.84 2.6,2.06 5,4.22 5,7.53 0,4.22 -3.7,6.8 -8.1,6.8 -4.4,0 -7.3,-3.03 -7.3,-6.23 0,-1.79 1.5,-1.96 1.9,-1.96 0.8,0 1.8,0.6 1.8,1.85 0,0.62 -0.2,1.84 -2,1.84 1,2.47 3.4,3.23 5,3.23 3.5,0 5.3,-2.7 5.3,-5.53 0,-3.03 -2.1,-5.43 -3.2,-6.68 l -8.4,-8.3 c -0.4,-0.31 -0.4,-0.39 -0.4,-1.36 l 14.4,0 z"
             id="path5549" /></g>      </g>
    </g>
    <g
       id="g6091"
       transform="translate(39.512395,26.147909)">
      <rect
         ry="6.3547597"
         y="131.96854"
         x="167.60298"
         height="63.333038"
         width="133.0795"
         id="rect5816"
         style="opacity:1;fill:#f5f5f5 icc-color(Generic-CMYK-Profile, 0, 0, 0, 0);fill-opacity:1;fill-rule:nonzero;stroke:#898b8a icc-color(Generic-CMYK-Profile, 0, 0, 0, 0.5);stroke-width:1;stroke-linecap:butt;stroke-linejoin:round;stroke-miterlimit:4;stroke-dasharray:none;stroke-dashoffset:0;stroke-opacity:1"
         rx="0" />
      <g
         transform="translate(-897.74487,-241.72289)"
         id="g5453">
        <g
           style="font-style:normal;font-variant:normal;font-weight:normal;font-stretch:normal;letter-spacing:normal;word-spacing:normal;text-anchor:start;fill:none;fill-opacity:1;fill-rule:evenodd;stroke:#000000;stroke-linecap:butt;stroke-linejoin:miter;stroke-miterlimit:10.43299961;stroke-dasharray:none;stroke-dashoffset:0;stroke-opacity:1"
           word-spacing="normal"
           letter-spacing="normal"
           font-size-adjust="none"
           font-stretch="normal"
           font-weight="normal"
           font-variant="normal"
           font-style="normal"
           stroke-miterlimit="10.433"
           xml:space="preserve"
           transform="matrix(1.0629921,0,0,-1.0629921,-186.02362,789.27165)"
           id="g5455"><path
             style="fill:#000000;stroke-width:0"
             inkscape:connector-curvature="0"
             id="path5457"
             d="m 1200.5,376.68 0,0.06 0.1,0.06 0,0.13 0,0.11 0,0.11 0.1,0.11 0,0.1 0,0.09 0.1,0.09 0,0.08 0,0.08 0,0.07 0.1,0.07 0,0.06 0,0.06 0.1,0.06 0,0.05 0,0.05 0.1,0.05 0,0.04 0,0.04 0.1,0.03 0,0.03 0,0.03 0.1,0.03 0,0.03 0.1,0.02 0,0.02 0.1,0.02 0,0.02 0.1,0.01 0,0.02 0.1,0.01 c 0.4,0.11 2.1,0.11 3.1,0.11 5,0 7.3,-0.2 7.3,-4.09 0,-0.74 -0.2,-2.69 -0.4,-3.99 -0.1,-0.19 -0.2,-0.8 -0.2,-0.94 0,-0.29 0.2,-0.65 0.6,-0.65 0.6,0 0.7,0.4 0.8,1.15 l 1.3,8.66 c 0.1,0.2 0.1,0.7 0.1,0.86 0,0.55 -0.5,0.55 -1.3,0.55 l -27.7,0 c -1.2,0 -1.2,-0.07 -1.6,-1 l -3,-8.77 c 0,-0.11 -0.3,-0.8 -0.3,-0.91 0,-0.29 0.3,-0.54 0.6,-0.54 0.5,0 0.6,0.25 0.9,1.04 2.7,7.72 4,8.63 11.3,8.63 l 2,0 c 1.4,0 1.4,-0.2 1.4,-0.59 0,-0.32 -0.2,-0.91 -0.2,-1.05 l -6.7,-26.61 c -0.5,-1.84 -0.6,-2.39 -5.9,-2.39 -1.8,0 -2.1,0 -2.1,-0.95 0,-0.6 0.5,-0.6 0.8,-0.6 1.4,0 2.8,0.1 4.1,0.1 1.4,0 2.9,0.06 4.2,0.06 1.4,0 2.8,-0.06 4.2,-0.06 1.4,0 2.9,-0.1 4.3,-0.1 0.5,0 1.1,0 1.1,1 0,0.55 -0.4,0.55 -1.7,0.55 -1.2,0 -1.9,0 -3.2,0.09 -1.4,0.16 -1.8,0.3 -1.8,1.1 0,0.06 0,0.31 0.2,1.04 z" /><path
             style="fill:#000000;stroke-width:0"
             inkscape:connector-curvature="0"
             id="path5459"
             d="m 1224.9,365.27 0,0.14 0,0.13 0,0.13 0,0.13 -0.1,0.13 0,0.12 0,0.13 -0.1,0.12 0,0.11 -0.1,0.12 -0.1,0.11 0,0.1 -0.1,0.11 -0.1,0.1 -0.1,0.09 -0.1,0.09 0,0.09 -0.1,0.09 -0.1,0.07 -0.1,0.08 -0.2,0.07 -0.1,0.06 -0.1,0.06 -0.1,0.05 -0.1,0.05 -0.1,0.04 -0.2,0.04 -0.1,0.03 -0.1,0.02 -0.2,0.02 -0.1,0.01 -0.1,0 c -1.5,0 -2.7,-1.19 -2.7,-2.64 0,-1.44 1.2,-2.64 2.7,-2.64 1.4,0 2.6,1.2 2.6,2.64 z" /><path
             style="fill:#000000;stroke-width:0"
             inkscape:connector-curvature="0"
             id="path5461"
             d="m 1224,346.99 0,-0.14 0,-0.15 0,-0.17 0,-0.18 0,-0.19 0,-0.2 -0.1,-0.21 0,-0.23 0,-0.24 0,-0.25 0,-0.25 -0.1,-0.27 0,-0.27 -0.1,-0.29 0,-0.29 -0.1,-0.29 -0.1,-0.31 -0.1,-0.31 -0.1,-0.32 -0.1,-0.32 -0.1,-0.33 -0.2,-0.33 -0.1,-0.33 -0.2,-0.34 -0.1,-0.34 -0.2,-0.34 -0.2,-0.35 -0.3,-0.34 -0.2,-0.35 -0.2,-0.35 -0.3,-0.34 -0.3,-0.35 c -0.4,-0.39 -0.4,-0.5 -0.4,-0.64 0,-0.36 0.3,-0.55 0.5,-0.55 0.6,0 4.2,3.99 4.2,9.77 0,1.44 -0.1,5.12 -2.8,5.12 -1.8,0 -2.7,-1.34 -2.7,-2.64 0,-1.29 0.9,-2.64 2.7,-2.64 0.2,0 0.3,0 0.4,0.05 0.3,0.05 0.9,0.15 1.3,0.5 z" /><path
             style="fill:#000000;stroke-width:0"
             inkscape:connector-curvature="0"
             id="path5463"
             d="m 1261.6,366.93 -4.2,9.9 c -0.1,0.41 -0.2,0.6 -0.2,0.64 0,0.32 0.8,1.25 2.9,1.46 0.5,0.04 1,0.09 1,0.95 0,0.59 -0.6,0.59 -0.7,0.59 -2.1,0 -4.2,-0.15 -6.3,-0.15 -1.3,0 -4.3,0.15 -5.6,0.15 -0.3,0 -0.9,0 -0.9,-1 0,-0.54 0.5,-0.54 1.2,-0.54 2.9,0 3.2,-0.5 3.7,-1.6 l 5.9,-13.9 -10.6,-11.32 -0.6,-0.54 c -2.4,-2.64 -4.8,-3.44 -7.3,-3.58 -0.7,-0.05 -1.1,-0.05 -1.1,-1 0,-0.05 0,-0.55 0.6,-0.55 1.5,0 3.2,0.16 4.7,0.16 1.8,0 3.8,-0.16 5.6,-0.16 0.3,0 0.9,0 0.9,1 0,0.5 -0.5,0.55 -0.6,0.55 -0.5,0.05 -2,0.14 -2,1.55 0,0.79 0.8,1.59 1.3,2.23 l 5.1,5.39 4.5,4.88 5,-11.91 c 0.2,-0.55 0.3,-0.59 0.3,-0.7 0,-0.39 -1,-1.24 -2.9,-1.44 -0.5,-0.05 -1,-0.11 -1,-0.95 0,-0.6 0.6,-0.6 0.7,-0.6 1.4,0 4.9,0.16 6.3,0.16 1.3,0 4.3,-0.16 5.6,-0.16 0.3,0 0.9,0 0.9,0.95 0,0.6 -0.5,0.6 -0.9,0.6 -3.3,0.05 -3.4,0.2 -4.3,2.19 -1.9,4.64 -5.3,12.4 -6.4,15.39 3.4,3.5 8.6,9.42 10.2,10.81 1.5,1.2 3.4,2.39 6.3,2.55 0.7,0.04 1.1,0.04 1.1,1 0,0.04 0,0.54 -0.6,0.54 -1.5,0 -3.2,-0.15 -4.7,-0.15 -1.8,0 -3.7,0.15 -5.5,0.15 -0.3,0 -1,0 -1,-1 0,-0.34 0.3,-0.5 0.6,-0.54 0.5,-0.05 2,-0.16 2,-1.55 0,-0.7 -0.5,-1.34 -0.9,-1.8 z" /><path
             style="fill:#000000;stroke-width:0"
             inkscape:connector-curvature="0"
             id="path5465"
             d="m 1290.4,361.04 0,0.04 0,0.04 0,0.04 0,0.04 0,0.04 0,0.04 0,0.04 0,0.03 0,0.03 0,0.04 0,0.03 0,0.03 0,0.03 0,0.03 0,0.02 0,0.03 0,0.03 0,0.02 -0.1,0.05 0,0.04 0,0.04 0,0.03 0,0.03 0,0.03 -0.1,0.02 0,0.03 0,0.02 -0.1,0.01 0,0.02 0,0.01 -0.1,0.01 0,0.01 0,0 -0.1,0.01 0,0 0,0 0,0.01 -0.1,0 0,0 0,0 -0.1,0 0,0.01 0,0 -0.1,0 0,0 0,0 -0.1,0 0,0 -0.1,0 0,0 -0.1,0 c -2.2,-2.2 -5.4,-2.23 -6.8,-2.23 l 0,-1.25 c 0.9,0 3.2,0 5.1,0.96 l 0,-17.76 c 0,-1.16 0,-1.61 -3.5,-1.61 l -1.3,0 0,-1.25 c 0.6,0.03 4.9,0.14 6.2,0.14 1.1,0 5.4,-0.11 6.2,-0.14 l 0,1.25 -1.3,0 c -3.5,0 -3.5,0.45 -3.5,1.61 z" /></g>      </g>
    </g>
  </g>
</svg>
