<?xml version="1.0" encoding="UTF-8" standalone="no"?>
<!-- Created with Inkscape (http://www.inkscape.org/) -->

<svg
   xmlns:dc="http://purl.org/dc/elements/1.1/"
   xmlns:cc="http://creativecommons.org/ns#"
   xmlns:rdf="http://www.w3.org/1999/02/22-rdf-syntax-ns#"
   xmlns:svg="http://www.w3.org/2000/svg"
   xmlns="http://www.w3.org/2000/svg"
   xmlns:sodipodi="http://sodipodi.sourceforge.net/DTD/sodipodi-0.dtd"
   xmlns:inkscape="http://www.inkscape.org/namespaces/inkscape"
   width="210mm"
   height="297mm"
   id="svg2"
   version="1.1"
   inkscape:version="0.48.2 r9819"
   sodipodi:docname="新規ドキュメント 1"
   inkscape:export-filename="/home/maeno/workspace/xva/res/drawable-hdpi/icon72.png"
   inkscape:export-xdpi="73.371902"
   inkscape:export-ydpi="73.371902">
  <sodipodi:namedview
     id="base"
     pagecolor="#ffffff"
     bordercolor="#666666"
     borderopacity="1.0"
     inkscape:pageopacity="0.0"
     inkscape:pageshadow="2"
     inkscape:zoom="7.597807"
     inkscape:cx="296.41278"
     inkscape:cy="796.92733"
     inkscape:document-units="px"
     inkscape:current-layer="layer1"
     showgrid="false"
     inkscape:window-width="1920"
     inkscape:window-height="1121"
     inkscape:window-x="0"
     inkscape:window-y="30"
     inkscape:window-maximized="1" />
  <defs
     id="defs4">
    <filter
       inkscape:collect="always"
       id="filter3900">
      <feGaussianBlur
         inkscape:collect="always"
         stdDeviation="0.49027306"
         id="feGaussianBlur3902" />
    </filter>
  </defs>
  <metadata
     id="metadata7">
    <rdf:RDF>
      <cc:Work
         rdf:about="">
        <dc:format>image/svg+xml</dc:format>
        <dc:type
           rdf:resource="http://purl.org/dc/dcmitype/StillImage" />
        <dc:title></dc:title>
      </cc:Work>
    </rdf:RDF>
  </metadata>
  <g
     id="layer1"
     inkscape:groupmode="layer"
     inkscape:label="レイヤー 1">
    <rect
       style="fill:#2e773b;fill-opacity:1;fill-rule:nonzero;stroke:#000000;stroke-width:1.13049364;stroke-opacity:1;filter:url(#filter3900)"
       id="rect3878"
       width="102.00312"
       height="94.106102"
       x="253.62581"
       y="205.01242"
       rx="11.885167"
       ry="9.7589016"
       transform="matrix(0.83730199,0,0,0.93450497,41.072974,13.35023)" />
    <path
       style="fill:#31d728;fill-opacity:1;stroke:none"
       d="m 288.12318,256.31939 c -2.81448,-0.73421 -13.47025,-7.46045 -15.12812,-8.49662 -1.65788,-1.03618 -3.52299,-10.98344 -3.31576,-11.81238 0.20724,-0.82894 3.38603,-4.81592 6.00981,-5.59533 1.54588,-0.45921 3.73107,2.06536 4.76639,0.82894 1.55726,-1.85973 -2.47813,-4.41314 -2.48681,-6.83875 -0.0118,-3.29914 0.84924,-7.13448 3.31575,-9.32555 2.33029,-2.07006 6.07461,-2.74406 9.11832,-2.07235 1.87545,0.41389 3.10852,3.73022 4.55917,3.52299 1.45064,-0.20724 4.03199,-7.01642 7.46044,-8.70385 2.35842,-1.16078 5.42731,-1.37299 7.87492,-0.41447 3.32052,1.30037 6.45716,4.24565 7.46044,7.66768 0.97192,3.31506 -4.58927,7.7882 -2.07234,10.15449 1.35514,1.27403 3.65225,-2.11876 5.3881,-1.45064 4.75666,1.83082 8.24024,7.75196 8.28938,12.84855 0.0431,4.46643 -6.63151,10.56896 -7.04597,11.3979 -0.41447,0.82894 -8.96601,8.51573 -14.50643,10.98344 -1.67072,0.74414 -3.56013,1.09578 -5.3881,1.03617 -4.92329,-0.16054 -14.29919,-3.73022 -14.29919,-3.73022 z"
       id="path3874"
       inkscape:connector-curvature="0"
       sodipodi:nodetypes="sssssssssssssssssss" />
    <path
       style="fill:#a4ab31;fill-opacity:1;stroke:none"
       d="m 311.67596,276.87781 c 3.12079,2.14775 4.37488,2.03549 9.31689,5.20951 -12.46155,0.10279 -7.26248,-2.5143 -12.94048,-1.42465 -5.678,1.08965 -9.22464,5.96344 -13.88472,9.53279 -1.21659,-3.50376 -0.70651,-7.36186 -1.65787,-9.74003 -2.5335,3.392 -20.8471,5.72429 -17.40771,4.1447 3.43939,-1.57959 10.68907,-2.5355 14.50642,-8.70386 3.81735,-6.16836 3.96309,-20.75238 2.07235,-26.52603 -1.89074,-5.77365 -8.9111,-7.87492 -6.42428,-7.46045 2.48682,0.41447 4.62853,2.82494 6.83875,0.62171 2.21022,-2.20323 -5.16448,-10.51205 -1.03618,-11.81238 4.1283,-1.30033 2.0837,12.69616 7.04598,12.22685 4.96228,-0.46931 0.52797,-15.01273 5.18087,-14.9209 4.6529,0.0918 -0.20697,9.11369 3.52298,11.60514 3.72995,2.49145 12.64046,-6.55771 14.71366,-1.45064 2.0732,5.10707 -11.40265,5.38492 -14.29919,11.39791 -2.89654,6.01299 -2.68014,17.37319 0,21.75963 2.68014,4.38644 1.33174,3.39294 4.45253,5.5407 z"
       id="path3876"
       inkscape:connector-curvature="0"
       sodipodi:nodetypes="cczcczzzzzzzzzzzzc" />
    <path
       id="path2997"
       d="m 311.50345,243.87777 0,0.0894 -0.14892,0.10423 -0.14892,0.10423 -0.14892,0.10423 -0.14892,0.11909 0,0.11908 -0.14891,0.13407 -0.14892,0.11908 -0.14893,0.13407 -0.14892,0.13407 -0.29784,0.28296 -0.29785,0.29784 -0.29784,0.29784 -0.14892,0.16382 -0.14892,0.14892 -0.14893,0.14892 -0.1489,0.14892 0,0.16382 -0.14893,0.14892 -0.14892,0.14891 0,0.14892 -0.14892,0.14892 -0.14892,0.14892 0,0.13408 0,0.14892 -0.14892,0.13407 0,0.13407 0,0.13407 0,0.13408 c 0,0.74459 0.74461,1.4892 1.4892,1.4892 0.59569,0 1.04246,-0.53612 1.34029,-0.98287 0.89353,-1.11691 2.68058,-3.18692 5.95684,-4.82504 0.44676,-0.29785 1.19137,-0.67015 1.19137,-1.54878 0,-0.74461 -0.44676,-1.11691 -1.04245,-1.48921 -1.63813,-1.11691 -2.38274,-2.4423 -2.97842,-4.21446 -0.14892,-0.67015 -0.44676,-1.65302 -1.4892,-1.65302 -1.04246,0 -1.48922,0.98287 -1.48922,1.56367 0,0.3723 0.59569,2.74015 1.78705,4.30381 h -25.01871 c -1.34029,0 -2.68058,0 -2.68058,1.48921 0,1.48921 1.34029,1.48921 2.68058,1.48921 z"
       inkscape:connector-curvature="0"
       style="font-style:normal;font-variant:normal;font-weight:normal;font-stretch:normal;letter-spacing:normal;word-spacing:normal;text-anchor:start;fill:#0000ff;fill-opacity:1;stroke:#000000;stroke-width:0;stroke-linecap:butt;stroke-linejoin:miter;stroke-miterlimit:10.43299961;stroke-opacity:1;stroke-dasharray:none;stroke-dashoffset:0" />
    <g
       id="g3037"
       style="fill:#ff0000;fill-opacity:1"
       transform="matrix(1.3427008,0,0,1.3427008,-89.269325,-154.73521)">
      <path
         style="font-style:normal;font-variant:normal;font-weight:normal;font-stretch:normal;letter-spacing:normal;word-spacing:normal;text-anchor:start;fill:#ff0000;fill-opacity:1;stroke:#000000;stroke-width:0;stroke-linecap:butt;stroke-linejoin:miter;stroke-miterlimit:10.43299961;stroke-opacity:1;stroke-dasharray:none;stroke-dashoffset:0"
         inkscape:connector-curvature="0"
         d="m 312.16141,278.07301 0,0.0638 -0.1063,0.0744 -0.1063,0.0744 -0.1063,0.0744 0,0.085 -0.1063,0.085 -0.1063,0.0957 -0.1063,0.085 -0.1063,0.0957 -0.1063,0.0957 -0.2126,0.20197 -0.21259,0.2126 -0.2126,0.2126 -0.1063,0.11693 -0.1063,0.1063 -0.1063,0.1063 0,0.1063 -0.1063,0.11693 -0.1063,0.1063 -0.1063,0.10629 0,0.1063 -0.1063,0.1063 -0.1063,0.1063 0,0.0957 0,0.1063 -0.1063,0.0957 0,0.0957 0,0.0957 0,0.0957 c 0,0.53149 0.5315,1.06299 1.063,1.06299 0.42519,0 0.74409,-0.38268 0.95669,-0.70157 0.63779,-0.79725 1.91339,-2.27481 4.25197,-3.4441 0.3189,-0.2126 0.85039,-0.47835 0.85039,-1.10551 0,-0.5315 -0.3189,-0.79725 -0.74409,-1.06299 -1.16929,-0.79725 -1.70079,-1.74331 -2.12599,-3.00827 -0.1063,-0.47835 -0.31889,-1.17992 -1.06299,-1.17992 -0.74409,0 -1.06299,0.70157 -1.06299,1.11614 0,0.26575 0.4252,1.95591 1.27559,3.07205 h -17.85827 c -0.85039,0 -1.80708,0 -1.80708,1.06299 0,1.06299 0.95669,1.06299 1.80708,1.06299 z"
         id="path3001" />
      <path
         style="font-style:normal;font-variant:normal;font-weight:normal;font-stretch:normal;letter-spacing:normal;word-spacing:normal;text-anchor:start;fill:#ff0000;fill-opacity:1;stroke:#000000;stroke-width:0;stroke-linecap:butt;stroke-linejoin:miter;stroke-miterlimit:10.43299961;stroke-opacity:1;stroke-dasharray:none;stroke-dashoffset:0"
         inkscape:connector-curvature="0"
         d="m 306.84645,289.56396 -0.1063,-0.18071 -0.1063,-0.18071 -0.1063,-0.17008 -0.1063,-0.18071 -0.1063,-0.15945 -0.1063,-0.17008 -0.1063,-0.15945 -0.1063,-0.15944 -0.1063,-0.14882 -0.1063,-0.14882 -0.1063,-0.13819 -0.21259,-0.13819 -0.1063,-0.12756 -0.1063,-0.12756 -0.2126,-0.12756 -0.1063,-0.1063 -0.1063,-0.11693 -0.2126,-0.10629 -0.1063,-0.0957 -0.2126,-0.085 -0.21259,-0.085 -0.1063,-0.085 -0.2126,-0.0744 -0.2126,-0.0638 -0.1063,-0.0532 -0.2126,-0.0532 -0.2126,-0.0425 -0.21259,-0.0425 -0.2126,-0.0213 -0.2126,-0.0213 -0.2126,-0.0106 -0.2126,-0.0106 0.1063,1.16929 c 3.40158,0 4.14567,4.32638 4.14567,4.64528 0,0.32953 -0.1063,0.64842 -0.2126,0.91417 l -2.65748,10.38543 c -0.2126,0.94607 -0.2126,1.04174 -1.06299,1.95591 -2.23228,2.90197 -4.46457,3.75236 -5.95276,3.75236 -2.65748,0 -3.40157,-2.90197 -3.40157,-4.98543 0,-2.63622 1.70079,-9.15236 2.97638,-11.58662 1.59449,-3.12519 4.03937,-5.0811 6.16535,-5.0811 l -0.1063,-1.16929 c -6.16535,0 -12.7559,7.7811 -12.7559,15.51969 0,4.9748 2.87008,8.47204 7.01574,8.47204 1.063,0 3.72048,-0.22323 6.90945,-3.97559 0.4252,2.22166 2.23229,3.97559 4.78347,3.97559 1.91338,0 3.08267,-1.22244 3.93307,-2.9126 0.95669,-1.91338 1.59449,-5.14488 1.59449,-5.25118 0,-0.53149 -0.4252,-0.53149 -0.6378,-0.53149 -0.53149,0 -0.53149,0.22323 -0.74409,0.96732 -0.8504,3.43346 -1.80709,6.55866 -4.03937,6.55866 -1.38189,0 -1.59449,-1.38189 -1.59449,-2.44488 0,-1.15866 0.1063,-1.57323 0.74409,-3.91181 0.5315,-2.23228 0.6378,-2.76378 1.16929,-4.77284 l 1.91339,-7.40905 c 0.3189,-1.47756 0.3189,-1.59449 0.3189,-1.78583 0,-0.91417 -0.6378,-1.44567 -1.48819,-1.44567 -1.27559,0 -2.12599,1.17992 -2.23228,2.33859 z"
         id="path3003" />
    </g>
    <path
       id="path2999"
       d="m 309.26964,260.42288 0,-0.1936 0,-0.17869 0,-0.17871 0,-0.16381 0,-0.17871 0,-0.16381 0,-0.16382 -0.14892,-0.14892 0,-0.31274 0,-0.28295 -0.14893,-0.28294 0,-0.25316 -0.1489,-0.25317 0,-0.22338 -0.14893,-0.22339 -0.14892,-0.20849 0,-0.1936 -0.14892,-0.1787 -0.14892,-0.16382 -0.14892,-0.14892 0,-0.14891 -0.14893,-0.13407 -0.14892,-0.11908 -0.14892,-0.10423 -0.14892,-0.10423 -0.14892,-0.0894 -0.14893,-0.0744 -0.1489,-0.0745 -0.14893,-0.0595 0,-0.0595 -0.14892,-0.0298 -0.14892,-0.0447 -0.14892,-0.0298 -0.14892,-0.0148 -0.14893,0 -0.14892,-0.0148 c -1.78705,0 -3.5741,1.93597 -3.5741,3.55921 0,0.9531 0.29784,1.39985 1.19136,2.21892 1.48922,1.48921 2.53166,3.41029 2.53166,6.09087 0,3.12734 -4.61655,20.10432 -13.25396,20.10432 -3.72302,0 -5.51007,-2.60611 -5.51007,-6.44827 0,-4.15489 2.08489,-9.57561 4.31871,-15.72605 0.59567,-1.28072 0.89352,-2.30828 0.89352,-3.72302 0,-3.32094 -2.38274,-6.07598 -6.10576,-6.07598 -6.99928,0 -9.82877,10.75209 -9.82877,11.42224 0,0.74461 0.74459,0.74461 0.89351,0.74461 0.74461,0 0.89354,-0.14893 1.19138,-1.3403 2.2338,-7.49072 5.36115,-9.18842 7.59495,-9.18842 0.59569,0 1.78707,0 1.78707,2.36785 0,1.86151 -0.74461,3.85705 -1.19138,5.18244 -3.27625,8.62253 -4.31871,12.03282 -4.31871,15.21972 0,8.01195 6.55253,9.20331 9.97771,9.20331 12.50936,0 16.67914,-24.55706 16.67914,-28.41411 z"
       inkscape:connector-curvature="0"
       style="font-style:normal;font-variant:normal;font-weight:normal;font-stretch:normal;letter-spacing:normal;word-spacing:normal;text-anchor:start;fill:#0000ff;fill-opacity:1;stroke:#000000;stroke-width:0;stroke-linecap:butt;stroke-linejoin:miter;stroke-miterlimit:10.43299961;stroke-opacity:1;stroke-dasharray:none;stroke-dashoffset:0" />
    <g
       id="g3029"
       transform="matrix(1.3495558,0,0,1.3495558,-55.441986,-159.71659)">
      <path
         style="font-style:normal;font-variant:normal;font-weight:normal;font-stretch:normal;letter-spacing:normal;word-spacing:normal;text-anchor:start;fill:#000000;stroke:#000000;stroke-width:0;stroke-linecap:butt;stroke-linejoin:miter;stroke-miterlimit:10.43299961;stroke-opacity:1;stroke-dasharray:none;stroke-dashoffset:0"
         inkscape:connector-curvature="0"
         d="m 256.99212,278.07301 -0.1063,0.0638 0,0.0744 -0.1063,0.0744 -0.1063,0.0744 -0.1063,0.085 -0.1063,0.085 -0.1063,0.0957 -0.1063,0.085 -0.1063,0.0957 -0.1063,0.0957 -0.2126,0.20197 -0.10629,0.2126 -0.2126,0.2126 -0.1063,0.11693 -0.1063,0.1063 -0.1063,0.1063 -0.1063,0.1063 -0.1063,0.11693 0,0.1063 -0.1063,0.10629 -0.1063,0.1063 0,0.1063 -0.1063,0.1063 0,0.0957 -0.1063,0.1063 0,0.0957 0,0.0957 0,0.0957 -0.10629,0.0957 c 0,0.53149 0.53149,1.06299 1.06299,1.06299 0.53149,0 0.85039,-0.38268 1.06299,-0.70157 0.63779,-0.79725 1.80709,-2.27481 4.14567,-3.4441 0.4252,-0.2126 0.95669,-0.47835 0.95669,-1.10551 0,-0.5315 -0.4252,-0.79725 -0.74409,-1.06299 -1.16929,-0.79725 -1.80709,-1.74331 -2.23229,-3.00827 -0.1063,-0.47835 -0.31889,-1.17992 -1.06299,-1.17992 -0.74409,0 -1.06299,0.70157 -1.06299,1.11614 0,0.26575 0.4252,1.95591 1.27559,3.07205 h -17.85827 c -0.85039,0 -1.80708,0 -1.80708,1.06299 0,1.06299 0.95669,1.06299 1.80708,1.06299 z"
         id="path2993" />
      <path
         style="font-style:normal;font-variant:normal;font-weight:normal;font-stretch:normal;letter-spacing:normal;word-spacing:normal;text-anchor:start;fill:#000000;stroke:#000000;stroke-width:0;stroke-linecap:butt;stroke-linejoin:miter;stroke-miterlimit:10.43299961;stroke-opacity:1;stroke-dasharray:none;stroke-dashoffset:0"
         inkscape:connector-curvature="0"
         d="m 246.99999,293.58207 0,-0.13819 0.1063,-0.15945 0,-0.17008 0.1063,-0.19134 0,-0.2126 0.1063,-0.2126 0,-0.23385 0.1063,-0.23386 0.1063,-0.25512 0.1063,-0.25512 0.10629,-0.25512 0.1063,-0.26575 0.1063,-0.26574 0.1063,-0.26575 0.1063,-0.26575 0.2126,-0.25512 0.1063,-0.25512 0.2126,-0.25511 0.1063,-0.24449 0.2126,-0.24449 0.21259,-0.22323 0.2126,-0.2126 0.2126,-0.20197 0.2126,-0.19133 0.3189,-0.17008 0.2126,-0.14882 0.10629,-0.0744 0.2126,-0.0638 0.1063,-0.0532 0.1063,-0.0532 0.2126,-0.0531 0.1063,-0.0425 0.2126,-0.0319 0.1063,-0.0319 0.21259,-0.0213 0.1063,-0.0213 0.2126,-0.0106 0.1063,0 c 0.3189,0 1.59449,0 2.65748,0.68032 -1.48819,0.26575 -2.55118,1.59449 -2.55118,2.84882 0,0.85039 0.6378,1.86023 2.01969,1.86023 1.16929,0 2.87007,-0.94606 2.87007,-3.07205 0,-2.75314 -3.08267,-3.48661 -4.88976,-3.48661 -3.08268,0 -4.99606,2.8063 -5.52756,4.01811 -1.38189,-3.48661 -4.25197,-4.01811 -5.74016,-4.01811 -5.52755,0 -8.61023,6.82441 -8.61023,8.15315 0,0.5315 0.53149,0.5315 0.63779,0.5315 0.4252,0 0.6378,-0.1063 0.7441,-0.57402 1.80708,-5.6126 5.31496,-6.94134 7.12205,-6.94134 0.95669,0 2.76377,0.45709 2.76377,3.52914 0,1.64763 -0.85039,5.20866 -2.76377,12.60708 -0.8504,3.29528 -2.76378,5.51693 -5.10237,5.51693 -0.31889,0 -1.48819,0 -2.65748,-0.69094 1.38189,-0.25512 2.55118,-1.37126 2.55118,-2.85945 0,-1.43504 -1.16929,-1.84961 -2.01968,-1.84961 -1.59449,0 -2.87008,1.38189 -2.87008,3.07205 0,2.43425 2.65748,3.49724 4.99606,3.49724 3.50788,0 5.42126,-3.70984 5.52756,-4.02874 0.6378,1.96654 2.55118,4.02874 5.74016,4.02874 5.42126,0 8.50394,-6.83504 8.50394,-8.16378 0,-0.53149 -0.5315,-0.53149 -0.6378,-0.53149 -0.53149,0 -0.63779,0.22323 -0.74409,0.58464 -1.70079,5.66575 -5.31496,6.94134 -7.01575,6.94134 -2.01969,0 -2.97638,-1.69016 -2.97638,-3.50787 0,-1.15866 0.4252,-2.31733 0.95669,-4.64528 z"
         id="path2995" />
    </g>
  </g>
</svg>
