<?xml version="1.0" encoding="UTF-8" standalone="no"?>
<!-- Created with Inkscape (http://www.inkscape.org/) -->

<svg
   xmlns:dc="http://purl.org/dc/elements/1.1/"
   xmlns:cc="http://creativecommons.org/ns#"
   xmlns:rdf="http://www.w3.org/1999/02/22-rdf-syntax-ns#"
   xmlns:svg="http://www.w3.org/2000/svg"
   xmlns="http://www.w3.org/2000/svg"
   xmlns:sodipodi="http://sodipodi.sourceforge.net/DTD/sodipodi-0.dtd"
   xmlns:inkscape="http://www.inkscape.org/namespaces/inkscape"
   width="364.55008"
   height="364.55008"
   id="svg2"
   version="1.1"
   inkscape:version="0.48+devel r"
   sodipodi:docname="chokusen.svg"
   inkscape:export-filename="/home/maeno/Dropbox/Physics/Book/Konteikara/chokusen.png"
   inkscape:export-xdpi="90"
   inkscape:export-ydpi="90">
  <sodipodi:namedview
     id="base"
     pagecolor="#ffffff"
     bordercolor="#666666"
     borderopacity="1.0"
     inkscape:pageopacity="0.0"
     inkscape:pageshadow="2"
     inkscape:zoom="2.5949796"
     inkscape:cx="182.27503"
     inkscape:cy="182.27503"
     inkscape:document-units="px"
     inkscape:current-layer="layer1"
     showgrid="false"
     inkscape:window-width="1920"
     inkscape:window-height="1091"
     inkscape:window-x="0"
     inkscape:window-y="24"
     inkscape:window-maximized="1"
     width="0px"
     height="0px"
     fit-margin-top="0"
     fit-margin-left="0"
     fit-margin-right="0"
     fit-margin-bottom="0">
    <inkscape:grid
       id="grid2985"
       type="xygrid"
       empspacing="5"
       visible="true"
       enabled="true"
       snapvisiblegridlinesonly="true"
       originx="-40px"
       originy="-680px" />
  </sodipodi:namedview>
  <defs
     id="defs4">
    <marker
       inkscape:stockid="Arrow1Mend"
       orient="auto"
       refY="0"
       refX="0"
       id="Arrow1Mend"
       style="overflow:visible">
      <path
         id="path3769"
         d="M 0,0 5,-5 -12.5,0 5,5 0,0 z"
         style="fill-rule:evenodd;stroke:#000000;stroke-width:1pt;marker-start:none"
         transform="matrix(-0.4,0,0,-0.4,-4,0)"
         inkscape:connector-curvature="0" />
    </marker>
    <marker
       style="overflow:visible"
       id="Arrow1Lend"
       refX="0"
       refY="0"
       orient="auto"
       inkscape:stockid="Arrow1Lend">
      <path
         transform="matrix(-0.8,0,0,-0.8,-10,0)"
         style="fill-rule:evenodd;stroke:#000000;stroke-width:1pt;marker-start:none"
         d="M 0,0 5,-5 -12.5,0 5,5 0,0 z"
         id="path3763"
         inkscape:connector-curvature="0" />
    </marker>
    <marker
       inkscape:stockid="Arrow1Mendr"
       orient="auto"
       refY="0"
       refX="0"
       id="Arrow1Mendr"
       style="overflow:visible">
      <path
         id="path4468"
         d="M 0,0 5,-5 -12.5,0 5,5 0,0 z"
         style="fill:#a0a0a0;fill-rule:evenodd;stroke:#a0a0a0;stroke-width:1pt;marker-start:none"
         transform="matrix(-0.4,0,0,-0.4,-4,0)"
         inkscape:connector-curvature="0" />
    </marker>
  </defs>
  <metadata
     id="metadata7">
    <rdf:RDF>
      <cc:Work
         rdf:about="">
        <dc:format>image/svg+xml</dc:format>
        <dc:type
           rdf:resource="http://purl.org/dc/dcmitype/StillImage" />
        <dc:title></dc:title>
      </cc:Work>
    </rdf:RDF>
  </metadata>
  <g
     id="layer1"
     inkscape:groupmode="layer"
     inkscape:label="レイヤー 1"
     transform="translate(-40,-7.8121143)">
    <path
       inkscape:connector-curvature="0"
       id="path1575"
       d="m 245.43818,226.72965 0,65.06259 -125.5529,0"
       style="fill:#8ab6ed;fill-opacity:1;stroke:none" />
    <path
       style="fill:#8aebed;fill-opacity:1;stroke:#000000;stroke-width:1;stroke-linecap:butt;stroke-linejoin:miter;stroke-miterlimit:4;stroke-opacity:1;stroke-dasharray:2.99999999, 1;stroke-dashoffset:0"
       d="m 312.91227,192.33209 0,35.71282 -67.64678,0"
       id="path7679"
       inkscape:connector-curvature="0" />
    <path
       inkscape:connector-curvature="0"
       id="path2987"
       d="m 40,292.36218 360,0"
       style="fill:none;stroke:#000000;stroke-width:2.5;stroke-linecap:butt;stroke-linejoin:miter;stroke-miterlimit:4;stroke-opacity:1;stroke-dasharray:none;marker-end:url(#Arrow1Lend)" />
    <path
       style="fill:none;stroke:#000000;stroke-width:2.5;stroke-linecap:butt;stroke-linejoin:miter;stroke-miterlimit:4;stroke-opacity:1;stroke-dasharray:none;marker-end:url(#Arrow1Lend)"
       d="M 120,372.36218 120,12.362183"
       id="path4201"
       inkscape:connector-curvature="0" />
    <path
       style="font-style:normal;font-variant:normal;font-weight:normal;font-stretch:normal;letter-spacing:normal;word-spacing:normal;text-anchor:start;fill:#000000;stroke:#000000;stroke-width:0;stroke-linecap:butt;stroke-linejoin:miter;stroke-miterlimit:10.43299961;stroke-opacity:1;stroke-dasharray:none;stroke-dashoffset:0"
       inkscape:connector-curvature="0"
       d="m 381.79636,255.10206 0.0319,-0.13819 0.0319,-0.15945 0.0532,-0.17007 0.0425,-0.19134 0.0638,-0.20197 0.0532,-0.22323 0.0744,-0.23386 0.0744,-0.23386 0.085,-0.24448 0.0957,-0.25512 0.1063,-0.26575 0.1063,-0.25512 0.11693,-0.26575 0.12756,-0.26575 0.13818,-0.26574 0.14882,-0.26575 0.14882,-0.25512 0.17008,-0.25512 0.18071,-0.24449 0.18071,-0.23385 0.20197,-0.23386 0.2126,-0.2126 0.22322,-0.20197 0.23386,-0.19134 0.24449,-0.17008 0.26575,-0.14882 0.12756,-0.0744 0.13819,-0.0638 0.14882,-0.0532 0.13818,-0.0531 0.14882,-0.0532 0.14882,-0.0425 0.15945,-0.0319 0.15945,-0.0319 0.15945,-0.0213 0.15945,-0.0213 0.17008,-0.0106 0.1807,0 c 0.26575,0 1.52008,0 2.63622,0.68031 -1.47755,0.26575 -2.54055,1.59449 -2.54055,2.85945 0,0.83977 0.58465,1.86024 2.00906,1.86024 1.16929,0 2.85945,-0.94607 2.85945,-3.07205 0,-2.76378 -3.1252,-3.49724 -4.92166,-3.49724 -3.07204,0 -4.93228,2.81693 -5.55944,4.02874 -1.32874,-3.49725 -4.18819,-4.02874 -5.7189,-4.02874 -5.5063,0 -8.53583,6.83504 -8.53583,8.16378 0,0.53149 0.5315,0.53149 0.64843,0.53149 0.41456,0 0.58464,-0.11693 0.68031,-0.58464 1.79646,-5.6126 5.30433,-6.94134 7.09016,-6.94134 1.02047,0 2.85945,0.46771 2.85945,3.53976 0,1.63701 -0.89292,5.19803 -2.85945,12.60709 -0.83976,3.28464 -2.68937,5.5063 -5.02795,5.5063 -0.3189,0 -1.53071,0 -2.63622,-0.69095 1.32874,-0.25512 2.4874,-1.36063 2.4874,-2.85945 0,-1.42441 -1.15866,-1.83897 -1.95591,-1.83897 -1.59449,0 -2.92323,1.37126 -2.92323,3.07204 0,2.42363 2.65748,3.48662 4.97481,3.48662 3.50787,0 5.4,-3.70984 5.57008,-4.01811 0.62716,1.9559 2.54055,4.01811 5.70826,4.01811 5.46378,0 8.49331,-6.82441 8.49331,-8.15315 0,-0.5315 -0.48898,-0.5315 -0.64843,-0.5315 -0.46771,0 -0.58464,0.2126 -0.68031,0.57402 -1.74331,5.66575 -5.34685,6.94134 -7.04764,6.94134 -2.07283,0 -2.92323,-1.69016 -2.92323,-3.49725 0,-1.16929 0.3189,-2.32795 0.91418,-4.6559 z"
       id="path4267" />
    <path
       style="font-style:normal;font-variant:normal;font-weight:normal;font-stretch:normal;letter-spacing:normal;word-spacing:normal;text-anchor:start;fill:#000000;stroke:#000000;stroke-width:0;stroke-linecap:butt;stroke-linejoin:miter;stroke-miterlimit:10.43299961;stroke-opacity:1;stroke-dasharray:none;stroke-dashoffset:0"
       inkscape:connector-curvature="0"
       d="m 164.98577,26.792113 0,-0.03189 0.0106,-0.03189 0.0213,-0.06378 0.0106,-0.05315 0.0213,-0.06378 0.0106,-0.05315 0.0106,-0.05315 0.0106,-0.04252 0.0106,-0.05315 0.0106,-0.04252 0.0106,-0.04252 0.0106,-0.03189 0.0106,-0.04252 0,-0.03189 0.0106,-0.03189 0.0106,-0.04252 0,-0.02126 0,-0.03189 0.0106,-0.03189 0,-0.06378 0.0106,-0.05315 0,-0.05315 0,-0.05315 0,-0.06378 0,-0.03189 0,-0.02126 0,-0.03189 0,-0.04252 c 0,-0.956692 -0.72283,-1.424409 -1.52008,-1.424409 -0.53149,0 -1.38189,0.318898 -1.86023,1.116142 -0.1063,0.265748 -0.5315,1.892126 -0.73347,2.848819 -0.38267,1.381889 -0.74409,2.806299 -1.06299,4.241338 l -2.39173,9.535039 c -0.20197,0.797244 -2.47677,4.496457 -5.98465,4.496457 -2.68937,0 -3.28464,-2.327953 -3.28464,-4.283858 0,-2.444882 0.91417,-5.729528 2.71063,-10.385433 0.83976,-2.168504 1.06299,-2.75315 1.06299,-3.816142 0,-2.370472 -1.70079,-4.337008 -4.35827,-4.337008 -5.02795,0 -6.98386,7.674803 -6.98386,8.15315 0,0.531496 0.5315,0.531496 0.6378,0.531496 0.5315,0 0.58465,-0.106299 0.85039,-0.956693 1.42441,-4.985433 3.53977,-6.558661 5.34685,-6.558661 0.41457,0 1.32874,0 1.32874,1.690157 0,1.32874 -0.53149,2.68937 -0.91417,3.699213 -2.10472,5.623228 -3.07205,8.642125 -3.07205,11.129527 0,4.709055 3.3378,6.303547 6.463,6.303547 2.07283,0 3.86929,-0.903547 5.34685,-2.381106 -0.68032,2.742516 -1.30748,5.346846 -3.43347,8.153146 -1.38189,1.79646 -3.39094,3.3378 -5.83583,3.3378 -0.72283,0 -3.11456,-0.15945 -4.01811,-2.22166 0.8504,0 1.55197,0 2.27481,-0.64842 0.53149,-0.46772 1.06299,-1.15866 1.06299,-2.15788 0,-1.64763 -1.42441,-1.86023 -1.95591,-1.86023 -1.21181,0 -2.97637,0.85039 -2.97637,3.43346 0,2.65748 2.33858,4.62402 5.61259,4.62402 5.46378,0 10.91693,-4.83662 12.41575,-10.81063 z"
       id="path4269" />
    <path
       id="path4216"
       d="m 320.70853,216.09915 0,1.94546 4.32258,-0.32524 0,-0.91655 c -2.06372,0 -2.29433,-0.20105 -2.29433,-1.64388 l 0,-17.88755 -4.2398,0.32523 0,0.91064 c 2.06372,0 2.29434,0.20696 2.29434,1.6557 l 0,6.35674 c -0.85151,-1.05256 -2.11694,-1.82128 -3.71352,-1.82128 l 0.11827,0.65046 c 1.03482,0 2.27068,0.44349 3.18723,1.76214 0.32523,0.49671 0.32523,0.56176 0.32523,1.08804 l 0,0 0,6.04333 c 0,0.52628 0,0.59132 -0.32523,1.09395 -0.88698,1.41326 -2.21746,2.05781 -3.48289,2.05781 -1.32457,0 -2.38304,-0.76873 -3.08671,-1.88633 -0.76873,-1.2063 -0.85743,-2.89157 -0.85743,-4.09196 0,-1.08804 0.0532,-2.86201 0.91065,-4.18657 0.62088,-0.91064 1.73848,-1.88041 3.32915,-1.88041 l -0.11827,-0.65046 c -3.47698,0 -6.56961,2.88566 -6.56961,6.68196 0,3.74308 2.89158,6.66423 6.24439,6.66423 1.88632,0 3.21679,-0.99935 3.95595,-1.94546 z"
       inkscape:connector-curvature="0"
       style="font-style:normal;font-variant:normal;font-weight:normal;font-stretch:normal;letter-spacing:normal;word-spacing:normal;text-anchor:start;fill:#000000;stroke:#000000;stroke-width:0;stroke-linecap:butt;stroke-linejoin:miter;stroke-miterlimit:10.43299961;stroke-opacity:1;stroke-dasharray:none;stroke-dashoffset:0" />
    <path
       id="path4218"
       d="m 340.22222,206.49013 0,-0.0177 0.006,-0.0177 0.0119,-0.0355 0.006,-0.0296 0.0118,-0.0355 0.006,-0.0296 0.006,-0.0296 0.006,-0.0236 0.006,-0.0296 0.006,-0.0237 0.006,-0.0237 0.006,-0.0177 0.006,-0.0237 0,-0.0177 0.006,-0.0177 0.006,-0.0237 0,-0.0118 0,-0.0177 0.006,-0.0177 0,-0.0355 0.006,-0.0296 0,-0.0296 0,-0.0296 0,-0.0355 0,-0.0177 0,-0.0118 0,-0.0177 0,-0.0237 c 0,-0.53219 -0.40209,-0.79237 -0.84559,-0.79237 -0.29566,0 -0.76872,0.17739 -1.03481,0.62089 -0.0591,0.14783 -0.29567,1.05255 -0.40802,1.58475 -0.21287,0.76872 -0.41393,1.56109 -0.59132,2.35938 l -1.33048,5.30418 c -0.11235,0.44349 -1.37779,2.5013 -3.32916,2.5013 -1.49605,0 -1.82719,-1.295 -1.82719,-2.38304 0,-1.36005 0.50854,-3.18724 1.50788,-5.77724 0.46714,-1.2063 0.59132,-1.53153 0.59132,-2.12285 0,-1.31865 -0.94612,-2.4126 -2.42443,-2.4126 -2.79696,0 -3.885,4.26936 -3.885,4.53545 0,0.29567 0.29567,0.29567 0.3548,0.29567 0.29566,0 0.32523,-0.0591 0.47306,-0.5322 0.79237,-2.77331 1.96911,-3.64846 2.97436,-3.64846 0.23061,0 0.73915,0 0.73915,0.9402 0,0.73916 -0.29566,1.49605 -0.50854,2.05781 -1.17081,3.1281 -1.70892,4.80746 -1.70892,6.19116 0,2.61957 1.85676,3.50655 3.59525,3.50655 1.15308,0 2.15242,-0.50262 2.97436,-1.32456 -0.37845,1.52561 -0.72733,2.97435 -1.90998,4.53545 -0.76872,0.99934 -1.88632,1.85676 -3.24637,1.85676 -0.4021,0 -1.73257,-0.0887 -2.2352,-1.23587 0.47306,0 0.86333,0 1.26543,-0.36071 0.29566,-0.26018 0.59133,-0.64454 0.59133,-1.20039 0,-0.91654 -0.79238,-1.03481 -1.08804,-1.03481 -0.67411,0 -1.65571,0.47306 -1.65571,1.90997 0,1.47831 1.30092,2.57227 3.12219,2.57227 3.03941,0 6.0729,-2.69053 6.90667,-6.01377 z"
       inkscape:connector-curvature="0"
       style="font-style:normal;font-variant:normal;font-weight:normal;font-stretch:normal;letter-spacing:normal;word-spacing:normal;text-anchor:start;fill:#000000;stroke:#000000;stroke-width:0;stroke-linecap:butt;stroke-linejoin:miter;stroke-miterlimit:10.43299961;stroke-opacity:1;stroke-dasharray:none;stroke-dashoffset:0" />
    <path
       id="path4224"
       d="m 297.61698,237.0784 0.0177,-0.0769 0.0178,-0.0887 0.0296,-0.0946 0.0237,-0.10644 0.0355,-0.11235 0.0296,-0.12418 0.0414,-0.13009 0.0414,-0.13009 0.0473,-0.136 0.0532,-0.14192 0.0591,-0.14783 0.0591,-0.14192 0.065,-0.14783 0.071,-0.14784 0.0769,-0.14782 0.0828,-0.14783 0.0828,-0.14192 0.0946,-0.14192 0.10052,-0.13601 0.10053,-0.13008 0.11235,-0.1301 0.11827,-0.11826 0.12417,-0.11235 0.13009,-0.10644 0.13601,-0.0946 0.14783,-0.0828 0.071,-0.0414 0.0769,-0.0355 0.0828,-0.0296 0.0769,-0.0295 0.0828,-0.0296 0.0828,-0.0236 0.0887,-0.0178 0.0887,-0.0177 0.0887,-0.0118 0.0887,-0.0118 0.0946,-0.006 0.10052,0 c 0.14783,0 0.84559,0 1.46648,0.37844 -0.82193,0.14783 -1.41326,0.88699 -1.41326,1.59066 0,0.46715 0.32523,1.03482 1.1176,1.03482 0.65046,0 1.59067,-0.52628 1.59067,-1.70893 0,-1.53743 -1.7385,-1.94544 -2.73784,-1.94544 -1.70892,0 -2.74374,1.567 -3.09262,2.24111 -0.73915,-1.94546 -2.32981,-2.24111 -3.18132,-2.24111 -3.06306,0 -4.74834,3.8022 -4.74834,4.54136 0,0.29566 0.29567,0.29566 0.36071,0.29566 0.23062,0 0.32523,-0.065 0.37845,-0.32523 0.99934,-3.12219 2.95071,-3.86134 3.94413,-3.86134 0.56767,0 1.59066,0.26017 1.59066,1.9691 0,0.91064 -0.49671,2.89158 -1.59066,7.01311 -0.46714,1.82719 -1.49605,3.06306 -2.79696,3.06306 -0.1774,0 -0.85151,0 -1.46648,-0.38437 0.73915,-0.14191 1.38369,-0.75689 1.38369,-1.59066 0,-0.79237 -0.64454,-1.02299 -1.08803,-1.02299 -0.88699,0 -1.62615,0.76281 -1.62615,1.70893 0,1.34822 1.47831,1.93954 2.7674,1.93954 1.95137,0 3.00393,-2.06372 3.09854,-2.2352 0.34888,1.08803 1.41327,2.2352 3.17541,2.2352 3.0394,0 4.72468,-3.7963 4.72468,-4.53545 0,-0.29567 -0.27201,-0.29567 -0.36071,-0.29567 -0.26018,0 -0.32523,0.11827 -0.37845,0.31932 -0.96977,3.15176 -2.97436,3.86135 -3.92048,3.86135 -1.15307,0 -1.62614,-0.94021 -1.62614,-1.94546 0,-0.65046 0.1774,-1.295 0.50855,-2.59 z"
       inkscape:connector-curvature="0"
       style="font-style:normal;font-variant:normal;font-weight:normal;font-stretch:normal;letter-spacing:normal;word-spacing:normal;text-anchor:start;fill:#000000;stroke:#000000;stroke-width:0;stroke-linecap:butt;stroke-linejoin:miter;stroke-miterlimit:10.43299961;stroke-opacity:1;stroke-dasharray:none;stroke-dashoffset:0" />
    <path
       id="path4222"
       d="m 282.58552,244.36351 0,1.93955 4.32258,-0.32523 0,-0.91655 c -2.05781,0 -2.29433,-0.20105 -2.29433,-1.64388 l 0,-17.88755 -4.2398,0.32523 0,0.91655 c 2.06372,0 2.29434,0.20105 2.29434,1.6498 l 0,6.35672 c -0.85151,-1.05255 -2.11694,-1.82127 -3.71352,-1.82127 l 0.11827,0.65046 c 1.03482,0 2.27068,0.44348 3.18724,1.76213 0.32522,0.50263 0.32522,0.56768 0.32522,1.09396 l 0,0 0,6.04333 c 0,0.52628 0,0.59132 -0.32522,1.08803 -0.88699,1.41327 -2.21747,2.05781 -3.4829,2.05781 -1.31866,0 -2.38304,-0.7628 -3.08671,-1.88041 -0.76872,-1.21221 -0.85742,-2.89157 -0.85742,-4.09787 0,-1.08804 0.0532,-2.86201 0.91064,-4.18067 0.62089,-0.91654 1.73849,-1.88631 3.32915,-1.88631 l -0.11827,-0.65046 c -3.47698,0 -6.56961,2.88566 -6.56961,6.68196 0,3.74308 2.89158,6.66422 6.24439,6.66422 1.88632,0 3.2168,-0.99934 3.95595,-1.93955 z"
       inkscape:connector-curvature="0"
       style="font-style:normal;font-variant:normal;font-weight:normal;font-stretch:normal;letter-spacing:normal;word-spacing:normal;text-anchor:start;fill:#000000;stroke:#000000;stroke-width:0;stroke-linecap:butt;stroke-linejoin:miter;stroke-miterlimit:10.43299961;stroke-opacity:1;stroke-dasharray:none;stroke-dashoffset:0" />
    <g
       id="g7663"
       transform="matrix(0.8919434,-0.45214706,0.45214706,0.8919434,164.52669,166.83817)"
       inkscape:transform-center-x="-96.10676"
       inkscape:transform-center-y="-48.964515">
      <path
         style="fill:none;stroke:#a0a0a0;stroke-width:3.75;stroke-linecap:butt;stroke-linejoin:miter;stroke-miterlimit:4;stroke-opacity:1;stroke-dasharray:none;marker-end:url(#Arrow1Mendr)"
         d="m 45.149695,90.913098 69.999995,0"
         id="path4563"
         inkscape:connector-curvature="0" />
      <path
         inkscape:connector-curvature="0"
         id="path7135"
         d="m -95.234168,90.66715 141.150642,0"
         style="fill:none;stroke:#000000;stroke-width:1;stroke-linecap:butt;stroke-linejoin:miter;stroke-miterlimit:4;stroke-opacity:1;stroke-dasharray:1, 2;stroke-dashoffset:0" />
    </g>
    <g
       inkscape:transform-center-y="-96.960118"
       inkscape:transform-center-x="-47.248198"
       transform="matrix(0.43823864,-0.89885866,0.89885866,0.43823864,82.180316,164.47)"
       id="g7667">
      <path
         inkscape:connector-curvature="0"
         id="path7669"
         d="m 45.149695,90.913098 69.999995,0"
         style="fill:none;stroke:#a0a0a0;stroke-width:3.75;stroke-linecap:butt;stroke-linejoin:miter;stroke-miterlimit:4;stroke-opacity:1;stroke-dasharray:none;marker-end:url(#Arrow1Mendr)" />
      <path
         style="fill:none;stroke:#000000;stroke-width:1;stroke-linecap:butt;stroke-linejoin:miter;stroke-miterlimit:4;stroke-opacity:1;stroke-dasharray:1, 2;stroke-dashoffset:0"
         d="m -95.234168,90.66715 141.150642,0"
         id="path7671"
         inkscape:connector-curvature="0" />
    </g>
    <g
       id="g7673"
       transform="matrix(-0.29393545,-0.95582527,0.95582527,-0.29393545,3.5060003,225.58057)"
       inkscape:transform-center-x="31.954033"
       inkscape:transform-center-y="-102.9978">
      <path
         style="fill:none;stroke:#a0a0a0;stroke-width:3.75;stroke-linecap:butt;stroke-linejoin:miter;stroke-miterlimit:4;stroke-opacity:1;stroke-dasharray:none;marker-end:url(#Arrow1Mendr)"
         d="m 45.149695,90.913098 69.999995,0"
         id="path7675"
         inkscape:connector-curvature="0" />
      <path
         inkscape:connector-curvature="0"
         id="path7677"
         d="m -95.234168,90.66715 141.150642,0"
         style="fill:none;stroke:#000000;stroke-width:1;stroke-linecap:butt;stroke-linejoin:miter;stroke-miterlimit:4;stroke-opacity:1;stroke-dasharray:1, 2;stroke-dashoffset:0" />
    </g>
    <path
       inkscape:connector-curvature="0"
       id="path7692"
       d="m 120.74332,228.04491 0,65.47349 123.29423,0"
       style="fill:none;stroke:#000000;stroke-width:1;stroke-linecap:butt;stroke-linejoin:miter;stroke-miterlimit:4;stroke-opacity:1;stroke-dasharray:3, 1;stroke-dashoffset:0" />
    <path
       inkscape:connector-curvature="0"
       id="path7694"
       d="m 245.1394,292.32172 0,-65.56906 -123.51039,0"
       style="fill:none;stroke:#000000;stroke-width:1;stroke-linecap:butt;stroke-linejoin:miter;stroke-miterlimit:4;stroke-opacity:1;stroke-dasharray:3.00000008, 1.00000002;stroke-dashoffset:0" />
    <path
       style="font-style:normal;font-variant:normal;font-weight:normal;font-stretch:normal;letter-spacing:normal;word-spacing:normal;text-anchor:start;fill:#000000;stroke:#000000;stroke-width:0;stroke-linecap:butt;stroke-linejoin:miter;stroke-miterlimit:10.43299961;stroke-opacity:1;stroke-dasharray:none;stroke-dashoffset:0"
       inkscape:connector-curvature="0"
       d="m 184.52641,223.47352 0.0177,-0.0769 0.0178,-0.0887 0.0296,-0.0946 0.0237,-0.10644 0.0355,-0.11235 0.0296,-0.12418 0.0414,-0.13009 0.0414,-0.13009 0.0473,-0.136 0.0532,-0.14192 0.0591,-0.14783 0.0591,-0.14192 0.065,-0.14783 0.071,-0.14784 0.0769,-0.14782 0.0828,-0.14783 0.0828,-0.14192 0.0946,-0.14192 0.10052,-0.13601 0.10053,-0.13008 0.11235,-0.1301 0.11827,-0.11826 0.12417,-0.11235 0.13009,-0.10644 0.13601,-0.0946 0.14783,-0.0828 0.071,-0.0414 0.0769,-0.0355 0.0828,-0.0296 0.0769,-0.0295 0.0828,-0.0296 0.0828,-0.0236 0.0887,-0.0178 0.0887,-0.0177 0.0887,-0.0118 0.0887,-0.0118 0.0946,-0.006 0.10052,0 c 0.14783,0 0.84559,0 1.46648,0.37844 -0.82193,0.14783 -1.41326,0.88699 -1.41326,1.59066 0,0.46715 0.32523,1.03482 1.1176,1.03482 0.65046,0 1.59067,-0.52628 1.59067,-1.70893 0,-1.53743 -1.7385,-1.94544 -2.73784,-1.94544 -1.70892,0 -2.74374,1.567 -3.09262,2.24111 -0.73915,-1.94546 -2.32981,-2.24111 -3.18132,-2.24111 -3.06306,0 -4.74834,3.8022 -4.74834,4.54136 0,0.29566 0.29567,0.29566 0.36071,0.29566 0.23062,0 0.32523,-0.065 0.37845,-0.32523 0.99934,-3.12219 2.95071,-3.86134 3.94413,-3.86134 0.56767,0 1.59066,0.26017 1.59066,1.9691 0,0.91064 -0.49671,2.89158 -1.59066,7.01311 -0.46714,1.82719 -1.49605,3.06306 -2.79696,3.06306 -0.1774,0 -0.85151,0 -1.46648,-0.38437 0.73915,-0.14191 1.38369,-0.75689 1.38369,-1.59066 0,-0.79237 -0.64454,-1.02299 -1.08803,-1.02299 -0.88699,0 -1.62615,0.76281 -1.62615,1.70893 0,1.34822 1.47831,1.93954 2.7674,1.93954 1.95137,0 3.00393,-2.06372 3.09854,-2.2352 0.34888,1.08803 1.41327,2.2352 3.17541,2.2352 3.0394,0 4.72468,-3.7963 4.72468,-4.53545 0,-0.29567 -0.27201,-0.29567 -0.36071,-0.29567 -0.26018,0 -0.32523,0.11827 -0.37845,0.31932 -0.96977,3.15176 -2.97436,3.86135 -3.92048,3.86135 -1.15307,0 -1.62614,-0.94021 -1.62614,-1.94546 0,-0.65046 0.1774,-1.295 0.50855,-2.59 z"
       id="path7737" />
    <path
       style="font-style:normal;font-variant:normal;font-weight:normal;font-stretch:normal;letter-spacing:normal;word-spacing:normal;text-anchor:start;fill:#000000;stroke:#000000;stroke-width:0;stroke-linecap:butt;stroke-linejoin:miter;stroke-miterlimit:10.43299961;stroke-opacity:1;stroke-dasharray:none;stroke-dashoffset:0"
       inkscape:connector-curvature="0"
       d="m 252.6408,253.25691 0,-0.0177 0.006,-0.0177 0.0119,-0.0355 0.006,-0.0296 0.0118,-0.0355 0.006,-0.0296 0.006,-0.0296 0.006,-0.0236 0.006,-0.0296 0.006,-0.0237 0.006,-0.0237 0.006,-0.0177 0.006,-0.0237 0,-0.0177 0.006,-0.0177 0.006,-0.0237 0,-0.0118 0,-0.0177 0.006,-0.0177 0,-0.0355 0.006,-0.0296 0,-0.0296 0,-0.0296 0,-0.0355 0,-0.0177 0,-0.0118 0,-0.0177 0,-0.0237 c 0,-0.53219 -0.40209,-0.79237 -0.84559,-0.79237 -0.29566,0 -0.76872,0.17739 -1.03481,0.62089 -0.0591,0.14783 -0.29567,1.05255 -0.40802,1.58475 -0.21287,0.76872 -0.41393,1.56109 -0.59132,2.35938 l -1.33048,5.30418 c -0.11235,0.44349 -1.37779,2.5013 -3.32916,2.5013 -1.49605,0 -1.82719,-1.295 -1.82719,-2.38304 0,-1.36005 0.50854,-3.18724 1.50788,-5.77724 0.46714,-1.2063 0.59132,-1.53153 0.59132,-2.12285 0,-1.31865 -0.94612,-2.4126 -2.42443,-2.4126 -2.79696,0 -3.885,4.26936 -3.885,4.53545 0,0.29567 0.29567,0.29567 0.3548,0.29567 0.29566,0 0.32523,-0.0591 0.47306,-0.5322 0.79237,-2.77331 1.96911,-3.64846 2.97436,-3.64846 0.23061,0 0.73915,0 0.73915,0.9402 0,0.73916 -0.29566,1.49605 -0.50854,2.05781 -1.17081,3.1281 -1.70892,4.80746 -1.70892,6.19116 0,2.61957 1.85676,3.50655 3.59525,3.50655 1.15308,0 2.15242,-0.50262 2.97436,-1.32456 -0.37845,1.52561 -0.72733,2.97435 -1.90998,4.53545 -0.76872,0.99934 -1.88632,1.85676 -3.24637,1.85676 -0.4021,0 -1.73257,-0.0887 -2.2352,-1.23587 0.47306,0 0.86333,0 1.26543,-0.36071 0.29566,-0.26018 0.59133,-0.64454 0.59133,-1.20039 0,-0.91654 -0.79238,-1.03481 -1.08804,-1.03481 -0.67411,0 -1.65571,0.47306 -1.65571,1.90997 0,1.47831 1.30092,2.57227 3.12219,2.57227 3.03941,0 6.0729,-2.69053 6.90667,-6.01377 z"
       id="path7739" />
  </g>
</svg>
