<?xml version="1.0" encoding="UTF-8" standalone="no"?>
<!-- Created with Inkscape (http://www.inkscape.org/) -->

<svg
   xmlns:dc="http://purl.org/dc/elements/1.1/"
   xmlns:cc="http://creativecommons.org/ns#"
   xmlns:rdf="http://www.w3.org/1999/02/22-rdf-syntax-ns#"
   xmlns:svg="http://www.w3.org/2000/svg"
   xmlns="http://www.w3.org/2000/svg"
   xmlns:sodipodi="http://sodipodi.sourceforge.net/DTD/sodipodi-0.dtd"
   xmlns:inkscape="http://www.inkscape.org/namespaces/inkscape"
   width="36.940868"
   height="17.351751"
   id="svg2"
   version="1.1"
   inkscape:version="0.48+devel r"
   sodipodi:docname="Fd2xdt2.svg"
   inkscape:export-filename="/home/maeno/Dropbox/la9/mybook/ykwkrMC/sim/Fd2xdt2.png"
   inkscape:export-xdpi="300"
   inkscape:export-ydpi="300">
  <sodipodi:namedview
     id="base"
     pagecolor="#ffffff"
     bordercolor="#666666"
     borderopacity="1.0"
     inkscape:pageopacity="0.0"
     inkscape:pageshadow="2"
     inkscape:zoom="22.630761"
     inkscape:cx="18.470435"
     inkscape:cy="8.6758755"
     inkscape:document-units="px"
     inkscape:current-layer="layer1"
     showgrid="false"
     inkscape:window-width="1432"
     inkscape:window-height="776"
     inkscape:window-x="182"
     inkscape:window-y="78"
     inkscape:window-maximized="0"
     fit-margin-top="0"
     fit-margin-left="0"
     fit-margin-right="0"
     fit-margin-bottom="0" />
  <defs
     id="defs4" />
  <metadata
     id="metadata7">
    <rdf:RDF>
      <cc:Work
         rdf:about="">
        <dc:format>image/svg+xml</dc:format>
        <dc:type
           rdf:resource="http://purl.org/dc/dcmitype/StillImage" />
        <dc:title />
      </cc:Work>
    </rdf:RDF>
  </metadata>
  <g
     transform="translate(-44.607724,-62.40867)"
     inkscape:label="レイヤー 1"
     inkscape:groupmode="layer"
     id="layer1">
    <g
       id="g4046"
       transform="matrix(0.88540384,0,0,0.88540384,6.7910041,8.1239219)">
      <g
         word-spacing="normal"
         letter-spacing="normal"
         font-size-adjust="none"
         font-stretch="normal"
         font-weight="normal"
         font-variant="normal"
         font-style="normal"
         stroke-miterlimit="10.433"
         xml:space="preserve"
         transform="matrix(0.15798174,0,0,-0.15798174,-27.646805,134.56683)"
         id="g4048"
         style="font-style:normal;font-variant:normal;font-weight:normal;font-stretch:normal;letter-spacing:normal;word-spacing:normal;text-anchor:start;fill:none;stroke:#000000;stroke-linecap:butt;stroke-linejoin:miter;stroke-miterlimit:10.43299961;stroke-opacity:1;stroke-dasharray:none;stroke-dashoffset:0"><path
           id="path4050"
           d="m 489.71,423.96 -0.07,-0.06 -0.07,-0.07 -0.08,-0.07 -0.08,-0.07 -0.08,-0.08 -0.09,-0.08 -0.09,-0.09 -0.1,-0.08 -0.09,-0.09 -0.1,-0.09 -0.19,-0.2 -0.2,-0.19 -0.19,-0.2 -0.09,-0.11 -0.09,-0.1 -0.09,-0.1 -0.08,-0.1 -0.08,-0.11 -0.08,-0.1 -0.07,-0.1 -0.06,-0.1 -0.06,-0.1 -0.06,-0.1 -0.04,-0.1 -0.04,-0.09 -0.03,-0.09 -0.02,-0.09 -0.02,-0.09 0,-0.09 c 0,-0.5 0.5,-1 1,-1 0.45,0 0.7,0.36 0.95,0.66 0.59,0.75 1.73,2.14 3.94,3.23 0.34,0.21 0.84,0.46 0.84,1.05 0,0.5 -0.34,0.75 -0.7,1 -1.1,0.75 -1.64,1.64 -2.05,2.83 -0.09,0.45 -0.3,1.11 -0.98,1.11 -0.71,0 -1,-0.66 -1,-1.05 0,-0.25 0.39,-1.84 1.18,-2.89 l -16.78,0 c -0.84,0 -1.75,0 -1.75,-1 0,-1 0.91,-1 1.75,-1 z"
           inkscape:connector-curvature="0"
           style="fill:#000000;stroke-width:0" /><path
           id="path4052"
           d="m 470.61,397.91 4.83,0 c 3.75,0 4.14,-0.8 4.14,-2.24 0,-0.36 0,-0.95 -0.34,-2.44 -0.11,-0.25 -0.16,-0.45 -0.16,-0.56 0,-0.39 0.3,-0.59 0.6,-0.59 0.5,0 0.5,0.15 0.75,1.04 l 2.75,10.82 c 0.14,0.54 0.14,0.65 0.14,0.79 0,0.1 -0.1,0.55 -0.6,0.55 -0.5,0 -0.54,-0.25 -0.75,-1.05 -1.04,-3.87 -2.18,-4.78 -6.42,-4.78 l -4.53,0 3.19,12.66 c 0.43,1.75 0.5,1.94 2.68,1.94 l 6.58,0 c 6.13,0 7.27,-1.64 7.27,-5.47 0,-1.16 0,-1.35 -0.14,-2.7 -0.11,-0.65 -0.11,-0.74 -0.11,-0.9 0,-0.25 0.15,-0.59 0.61,-0.59 0.54,0 0.59,0.3 0.69,1.25 l 1,8.61 c 0.15,1.34 -0.1,1.34 -1.35,1.34 l -24.4,0 c -1,0 -1.5,0 -1.5,-1 0,-0.54 0.45,-0.54 1.39,-0.54 1.84,0 3.23,0 3.23,-0.89 0,-0.21 0,-0.3 -0.25,-1.21 l -6.56,-26.34 c -0.5,-1.95 -0.61,-2.34 -4.55,-2.34 -0.84,0 -1.39,0 -1.39,-0.96 0,-0.59 0.59,-0.59 0.75,-0.59 1.44,0 5.13,0.16 6.58,0.16 1.64,0 5.78,-0.16 7.42,-0.16 0.45,0 1.05,0 1.05,0.95 0,0.39 -0.3,0.49 -0.3,0.55 -0.16,0.05 -0.25,0.05 -1.39,0.05 -1.11,0 -1.36,0 -2.59,0.09 -1.46,0.16 -1.6,0.36 -1.6,1 0,0.09 0,0.41 0.19,1.14 z"
           inkscape:connector-curvature="0"
           style="fill:#000000;stroke-width:0" /><path
           id="path4054"
           d="m 542.55,398.02 0.14,0 0.15,0 0.14,0 0.08,0.01 0.07,0 0.07,0.01 0.07,0.01 0.07,0.01 0.07,0.01 0.07,0.01 0.07,0.02 0.06,0.02 0.06,0.02 0.06,0.02 0.06,0.03 0.06,0.03 0.05,0.04 0.05,0.03 0.05,0.05 0.04,0.04 0.04,0.05 0.02,0.03 0.02,0.03 0.01,0.02 0.02,0.03 0.01,0.03 0.02,0.04 0.01,0.03 0.01,0.04 0.01,0.03 0.01,0.04 0.01,0.04 0,0.04 0.01,0.04 0,0.04 0,0.04 0,0.05 c 0,1 -0.95,1 -1.64,1 l -29.84,0 c -0.71,0 -1.64,0 -1.64,-1 0,-0.98 0.93,-0.98 1.68,-0.98 z"
           inkscape:connector-curvature="0"
           style="fill:#000000;stroke-width:0" /><path
           id="path4056"
           d="m 542.6,388.34 0.07,0 0.06,0 0.14,0.01 0.14,0 0.07,0 0.07,0.01 0.07,0.01 0.07,0 0.07,0.01 0.06,0.02 0.07,0.01 0.06,0.02 0.07,0.02 0.06,0.02 0.06,0.02 0.06,0.03 0.05,0.03 0.05,0.04 0.05,0.04 0.05,0.04 0.04,0.05 0.02,0.02 0.02,0.03 0.02,0.02 0.02,0.03 0.01,0.03 0.02,0.03 0.01,0.03 0.02,0.03 0.01,0.04 0.01,0.03 0.01,0.04 0.01,0.04 0.01,0.04 0,0.04 0.01,0.04 0,0.04 0,0.05 0,0.04 c 0,1 -0.95,1 -1.69,1 l -29.75,0 c -0.75,0 -1.68,0 -1.68,-1 0,-1 0.93,-1 1.64,-1 z"
           inkscape:connector-curvature="0"
           style="fill:#000000;stroke-width:0" /><path
           id="path4058"
           d="m 565.27,384.66 -0.02,-0.08 -0.01,-0.07 -0.02,-0.07 -0.02,-0.08 -0.03,-0.16 -0.04,-0.16 -0.04,-0.16 -0.04,-0.16 -0.03,-0.17 -0.04,-0.15 -0.02,-0.08 -0.01,-0.07 -0.02,-0.07 -0.02,-0.07 -0.01,-0.07 -0.01,-0.07 -0.02,-0.06 -0.01,-0.06 -0.01,-0.06 -0.01,-0.05 -0.01,-0.05 0,-0.04 -0.01,-0.04 0,-0.04 -0.01,-0.03 0,-0.02 c 0,-0.9 0.71,-1.35 1.44,-1.35 0.61,0 1.5,0.39 1.84,1.39 0.07,0.11 0.66,2.44 0.96,3.69 l 1.09,4.48 c 0.3,1.1 0.59,2.19 0.84,3.35 0.21,0.84 0.61,2.28 0.66,2.48 0.75,1.55 3.39,6.08 8.11,6.08 2.25,0 2.7,-1.84 2.7,-3.48 0,-1.25 -0.36,-2.64 -0.75,-4.14 l -1.39,-5.79 -1,-3.78 c -0.2,-1 -0.65,-2.68 -0.65,-2.93 0,-0.9 0.7,-1.35 1.45,-1.35 1.55,0 1.84,1.25 2.23,2.85 0.71,2.78 2.55,10.06 3,12 0.14,0.65 2.78,6.62 8.22,6.62 2.14,0 2.69,-1.69 2.69,-3.48 0,-2.85 -2.09,-8.52 -3.09,-11.16 -0.46,-1.2 -0.64,-1.75 -0.64,-2.75 0,-2.33 1.73,-4.08 4.07,-4.08 4.69,0 6.53,7.27 6.53,7.67 0,0.5 -0.45,0.5 -0.59,0.5 -0.5,0 -0.5,-0.15 -0.75,-0.9 -0.75,-2.64 -2.34,-6.17 -5.08,-6.17 -0.86,0 -1.2,0.5 -1.2,1.64 0,1.25 0.45,2.45 0.89,3.54 0.95,2.58 3.05,8.11 3.05,10.96 0,3.23 -2,5.32 -5.74,5.32 -3.73,0 -6.26,-2.18 -8.11,-4.82 -0.06,0.65 -0.2,2.34 -1.61,3.53 -1.23,1.04 -2.82,1.29 -4.07,1.29 -4.49,0 -6.93,-3.18 -7.77,-4.32 -0.25,2.84 -2.34,4.32 -4.59,4.32 -2.28,0 -3.24,-1.93 -3.69,-2.82 -0.89,-1.75 -1.55,-4.69 -1.55,-4.85 0,-0.5 0.5,-0.5 0.61,-0.5 0.5,0 0.55,0.06 0.85,1.16 0.84,3.53 1.84,5.92 3.64,5.92 0.79,0 1.54,-0.39 1.54,-2.28 0,-1.05 -0.15,-1.61 -0.79,-4.19 z"
           inkscape:connector-curvature="0"
           style="fill:#000000;stroke-width:0" /><path
           id="path4060"
           d="m 629.5,418.18 0,-3.29 7.31,0.55 0,1.55 c -3.49,0 -3.88,0.34 -3.88,2.78 l 0,30.25 -7.17,-0.55 0,-1.54 c 3.49,0 3.88,-0.35 3.88,-2.8 l 0,-10.75 c -1.44,1.78 -3.58,3.08 -6.29,3.08 l 0.21,-1.1 c 1.75,0 3.84,-0.75 5.39,-2.98 0.55,-0.84 0.55,-0.95 0.55,-1.84 l 0,0 0,-10.22 c 0,-0.89 0,-1 -0.55,-1.85 -1.5,-2.39 -3.75,-3.48 -5.89,-3.48 -2.24,0 -4.03,1.3 -5.22,3.19 -1.3,2.04 -1.45,4.89 -1.45,6.92 0,1.84 0.09,4.84 1.54,7.08 1.05,1.54 2.94,3.18 5.63,3.18 l -0.21,1.1 c -5.87,0 -11.1,-4.88 -11.1,-11.3 0,-6.33 4.89,-11.27 10.56,-11.27 3.19,0 5.44,1.69 6.69,3.29 z"
           inkscape:connector-curvature="0"
           style="fill:#000000;stroke-width:0" /><path
           id="path4062"
           d="m 655.88,439.9 -1.19,0 c -0.1,-0.76 -0.46,-2.83 -0.91,-3.17 -0.26,-0.2 -2.95,-0.2 -3.44,-0.2 l -6.42,0 c 3.66,3.23 4.88,4.2 6.97,5.84 2.58,2.06 4.99,4.22 4.99,7.53 0,4.22 -3.69,6.8 -8.16,6.8 -4.31,0 -7.25,-3.03 -7.25,-6.24 0,-1.78 1.5,-1.95 1.86,-1.95 0.83,0 1.84,0.6 1.84,1.85 0,0.62 -0.25,1.84 -2.06,1.84 1.08,2.47 3.45,3.23 5.09,3.23 3.49,0 5.3,-2.7 5.3,-5.53 0,-3.03 -2.16,-5.44 -3.28,-6.69 l -8.39,-8.29 c -0.36,-0.31 -0.36,-0.39 -0.36,-1.36 l 14.36,0 z"
           inkscape:connector-curvature="0"
           style="fill:#000000;stroke-width:0" /><path
           id="path4064"
           d="m 686.75,445.08 -0.07,-0.06 -0.07,-0.07 -0.08,-0.07 -0.08,-0.07 -0.08,-0.08 -0.09,-0.08 -0.09,-0.09 -0.1,-0.08 -0.09,-0.09 -0.1,-0.09 -0.19,-0.19 -0.2,-0.2 -0.19,-0.2 -0.09,-0.11 -0.09,-0.1 -0.09,-0.1 -0.08,-0.1 -0.08,-0.11 -0.08,-0.1 -0.07,-0.1 -0.06,-0.1 -0.06,-0.1 -0.06,-0.1 -0.04,-0.09 -0.04,-0.1 -0.03,-0.09 -0.03,-0.09 -0.01,-0.09 0,-0.09 c 0,-0.5 0.5,-1 1,-1 0.45,0 0.7,0.36 0.95,0.66 0.59,0.75 1.73,2.14 3.94,3.24 0.34,0.2 0.84,0.45 0.84,1.04 0,0.5 -0.34,0.75 -0.7,1 -1.1,0.75 -1.64,1.64 -2.05,2.83 -0.09,0.45 -0.3,1.11 -0.98,1.11 -0.71,0 -1,-0.66 -1,-1.05 0,-0.25 0.39,-1.84 1.18,-2.89 l -16.78,0 c -0.84,0 -1.75,0 -1.75,-1 0,-1 0.91,-1 1.75,-1 z"
           inkscape:connector-curvature="0"
           style="fill:#000000;stroke-width:0" /><path
           id="path4066"
           d="m 677.36,430.49 0.03,0.13 0.03,0.15 0.05,0.16 0.04,0.18 0.06,0.2 0.06,0.2 0.06,0.22 0.07,0.22 0.08,0.24 0.09,0.24 0.1,0.24 0.1,0.25 0.11,0.25 0.12,0.25 0.13,0.25 0.14,0.24 0.14,0.24 0.16,0.24 0.17,0.23 0.17,0.23 0.19,0.21 0.2,0.2 0.21,0.19 0.22,0.18 0.23,0.16 0.25,0.14 0.12,0.07 0.13,0.06 0.14,0.05 0.13,0.05 0.14,0.05 0.14,0.04 0.15,0.03 0.15,0.03 0.15,0.02 0.16,0.02 0.15,0.01 0.17,0 c 0.25,0 1.43,0 2.48,-0.64 -1.39,-0.25 -2.39,-1.5 -2.39,-2.68 0,-0.8 0.55,-1.75 1.89,-1.75 1.1,0 2.69,0.89 2.69,2.89 0,2.59 -2.94,3.28 -4.63,3.28 -2.89,0 -4.64,-2.64 -5.23,-3.78 -1.25,3.28 -3.94,3.78 -5.38,3.78 -5.18,0 -8.03,-6.42 -8.03,-7.67 0,-0.5 0.5,-0.5 0.61,-0.5 0.39,0 0.55,0.1 0.64,0.54 1.69,5.28 4.99,6.53 6.67,6.53 0.96,0 2.69,-0.43 2.69,-3.32 0,-1.55 -0.84,-4.9 -2.69,-11.86 -0.79,-3.1 -2.53,-5.19 -4.73,-5.19 -0.3,0 -1.44,0 -2.48,0.65 1.25,0.24 2.34,1.29 2.34,2.69 0,1.35 -1.09,1.74 -1.84,1.74 -1.5,0 -2.75,-1.3 -2.75,-2.89 0,-2.29 2.5,-3.29 4.68,-3.29 3.3,0 5.08,3.49 5.24,3.79 0.59,-1.85 2.39,-3.79 5.37,-3.79 5.14,0 7.99,6.43 7.99,7.68 0,0.5 -0.46,0.5 -0.61,0.5 -0.44,0 -0.55,-0.21 -0.64,-0.55 -1.64,-5.33 -5.03,-6.53 -6.63,-6.53 -1.95,0 -2.75,1.59 -2.75,3.3 0,1.09 0.3,2.18 0.86,4.37 z"
           inkscape:connector-curvature="0"
           style="fill:#000000;stroke-width:0" /><polyline
           id="polyline4068"
           points="611,393 689.6,393 689.6,395.04 611,395.04 "
           style="fill:#000000;fill-rule:nonzero;stroke-width:0" /><path
           id="path4070"
           d="m 634.78,350.25 0,-3.28 7.31,0.55 0,1.55 c -3.49,0 -3.87,0.34 -3.87,2.78 l 0,30.25 -7.18,-0.55 0,-1.55 c 3.49,0 3.88,-0.34 3.88,-2.79 l 0,-10.75 c -1.44,1.78 -3.58,3.08 -6.28,3.08 l 0.2,-1.1 c 1.75,0 3.84,-0.75 5.39,-2.98 0.55,-0.85 0.55,-0.96 0.55,-1.85 l 0,0 0,-10.22 c 0,-0.89 0,-1 -0.55,-1.84 -1.5,-2.39 -3.75,-3.48 -5.89,-3.48 -2.24,0 -4.03,1.29 -5.22,3.18 -1.3,2.05 -1.45,4.89 -1.45,6.93 0,1.84 0.09,4.84 1.55,7.07 1.04,1.55 2.93,3.19 5.62,3.19 l -0.2,1.1 c -5.88,0 -11.11,-4.88 -11.11,-11.3 0,-6.33 4.89,-11.27 10.56,-11.27 3.19,0 5.44,1.69 6.69,3.28 z"
           inkscape:connector-curvature="0"
           style="fill:#000000;stroke-width:0" /><path
           id="path4072"
           d="m 653.82,367.44 4.69,0 c 0.99,0 1.49,0 1.49,1 0,0.55 -0.5,0.55 -1.4,0.55 l -4.38,0 c 1.79,7.08 2.04,8.08 2.04,8.37 0,0.85 -0.59,1.35 -1.44,1.35 -0.15,0 -1.54,-0.05 -2,-1.8 l -1.93,-7.92 -4.69,0 c -1,0 -1.5,0 -1.5,-0.94 0,-0.61 0.4,-0.61 1.4,-0.61 l 4.38,0 c -3.58,-14.14 -3.78,-14.98 -3.78,-15.89 0,-2.69 1.89,-4.58 4.58,-4.58 5.07,0 7.92,7.27 7.92,7.67 0,0.5 -0.39,0.5 -0.6,0.5 -0.45,0 -0.5,-0.15 -0.75,-0.7 -2.13,-5.17 -4.78,-6.37 -6.46,-6.37 -1.05,0 -1.55,0.65 -1.55,2.29 0,1.19 0.09,1.55 0.3,2.39 z"
           inkscape:connector-curvature="0"
           style="fill:#000000;stroke-width:0" /><path
           id="path4074"
           d="m 679.15,368.27 -1.18,0 c -0.1,-0.77 -0.46,-2.83 -0.91,-3.18 -0.27,-0.2 -2.96,-0.2 -3.44,-0.2 l -6.42,0 c 3.65,3.23 4.87,4.2 6.97,5.84 2.58,2.07 4.98,4.22 4.98,7.54 0,4.21 -3.68,6.79 -8.15,6.79 -4.32,0 -7.25,-3.03 -7.25,-6.23 0,-1.78 1.5,-1.95 1.85,-1.95 0.83,0 1.85,0.59 1.85,1.84 0,0.62 -0.25,1.84 -2.06,1.84 1.08,2.47 3.45,3.24 5.09,3.24 3.49,0 5.3,-2.71 5.3,-5.53 0,-3.04 -2.16,-5.44 -3.28,-6.69 l -8.4,-8.3 c -0.35,-0.31 -0.35,-0.39 -0.35,-1.36 l 14.35,0 z"
           inkscape:connector-curvature="0"
           style="fill:#000000;stroke-width:0" /></g>    </g>
  </g>
</svg>
