<?xml version="1.0" encoding="UTF-8" standalone="no"?>
<!-- Created with Inkscape (http://www.inkscape.org/) -->

<svg
   xmlns:dc="http://purl.org/dc/elements/1.1/"
   xmlns:cc="http://creativecommons.org/ns#"
   xmlns:rdf="http://www.w3.org/1999/02/22-rdf-syntax-ns#"
   xmlns:svg="http://www.w3.org/2000/svg"
   xmlns="http://www.w3.org/2000/svg"
   xmlns:sodipodi="http://sodipodi.sourceforge.net/DTD/sodipodi-0.dtd"
   xmlns:inkscape="http://www.inkscape.org/namespaces/inkscape"
   width="210mm"
   height="297mm"
   viewBox="0 0 744.09448819 1052.3622047"
   id="svg2"
   version="1.1"
   inkscape:version="0.91 r13725"
   sodipodi:docname="Kelvin.svg"
   inkscape:export-filename="/Users/maeno/Dropbox/la9/ykwkrTD/Kelvin.png"
   inkscape:export-xdpi="200.11006"
   inkscape:export-ydpi="200.11006">
  <sodipodi:namedview
     id="base"
     pagecolor="#ffffff"
     bordercolor="#666666"
     borderopacity="1.0"
     inkscape:pageopacity="0.0"
     inkscape:pageshadow="2"
     inkscape:zoom="1.7209789"
     inkscape:cx="454.14891"
     inkscape:cy="836.95505"
     inkscape:document-units="px"
     inkscape:current-layer="layer1"
     showgrid="false"
     inkscape:window-width="2515"
     inkscape:window-height="1395"
     inkscape:window-x="45"
     inkscape:window-y="219"
     inkscape:window-maximized="0" />
  <defs
     id="defs4">
    <marker
       inkscape:isstock="true"
       style="overflow:visible;"
       id="marker4941"
       refX="0.0"
       refY="0.0"
       orient="auto"
       inkscape:stockid="Arrow1Lend">
      <path
         transform="scale(0.8) rotate(180) translate(12.5,0)"
         style="fill-rule:evenodd;stroke:#000000;stroke-width:1pt;stroke-opacity:1;fill:#000000;fill-opacity:1"
         d="M 0.0,0.0 L 5.0,-5.0 L -12.5,0.0 L 5.0,5.0 L 0.0,0.0 z "
         id="path4943" />
    </marker>
    <marker
       inkscape:collect="always"
       inkscape:stockid="Arrow1Lend"
       orient="auto"
       refY="0.0"
       refX="0.0"
       id="marker4551"
       style="overflow:visible;"
       inkscape:isstock="true">
      <path
         id="path4553"
         d="M 0.0,0.0 L 5.0,-5.0 L -12.5,0.0 L 5.0,5.0 L 0.0,0.0 z "
         style="fill-rule:evenodd;stroke:#000000;stroke-width:1pt;stroke-opacity:1;fill:#000000;fill-opacity:1"
         transform="scale(0.8) rotate(180) translate(12.5,0)" />
    </marker>
    <marker
       inkscape:isstock="true"
       style="overflow:visible;"
       id="Arrow1Lend"
       refX="0.0"
       refY="0.0"
       orient="auto"
       inkscape:stockid="Arrow1Lend"
       inkscape:collect="always">
      <path
         transform="scale(0.8) rotate(180) translate(12.5,0)"
         style="fill-rule:evenodd;stroke:#000000;stroke-width:1pt;stroke-opacity:1;fill:#000000;fill-opacity:1"
         d="M 0.0,0.0 L 5.0,-5.0 L -12.5,0.0 L 5.0,5.0 L 0.0,0.0 z "
         id="path4219" />
    </marker>
  </defs>
  <metadata
     id="metadata7">
    <rdf:RDF>
      <cc:Work
         rdf:about="">
        <dc:format>image/svg+xml</dc:format>
        <dc:type
           rdf:resource="http://purl.org/dc/dcmitype/StillImage" />
        <dc:title></dc:title>
      </cc:Work>
    </rdf:RDF>
  </metadata>
  <g
     id="layer1"
     inkscape:groupmode="layer"
     inkscape:label="レイヤー 1">
    <rect
       ry="6.3547597"
       y="166.25134"
       x="64.754539"
       height="63.333038"
       width="133.0795"
       id="rect4136"
       style="opacity:1;fill:#f5f5f5 icc-color(Generic-CMYK-Profile, 0, 0, 0, 0);fill-opacity:1;fill-rule:nonzero;stroke:#898b8a icc-color(Generic-CMYK-Profile, 0, 0, 0, 0.5);stroke-width:1;stroke-linecap:butt;stroke-linejoin:round;stroke-miterlimit:4;stroke-dasharray:none;stroke-dashoffset:0;stroke-opacity:1"
       rx="0" />
    <g
       id="g4144"
       transform="translate(-1002,-205.71429)">
      <g
         word-spacing="normal"
         letter-spacing="normal"
         font-size-adjust="none"
         font-stretch="normal"
         font-weight="normal"
         font-variant="normal"
         font-style="normal"
         stroke-miterlimit="10.433"
         xml:space="preserve"
         transform="matrix(1.0629921,0,0,-1.0629921,-186.02362,789.27165)"
         id="content"
         style="font-style:normal;font-variant:normal;font-weight:normal;font-stretch:normal;letter-spacing:normal;word-spacing:normal;text-anchor:start;fill:none;fill-opacity:1;fill-rule:evenodd;stroke:#000000;stroke-linecap:butt;stroke-linejoin:miter;stroke-miterlimit:10.43299961;stroke-dasharray:none;stroke-dashoffset:0;stroke-opacity:1"><path
           id="path4147"
           d="m 1209.8,376.68 0,0.06 0,0.06 0,0.13 0.1,0.11 0,0.11 0,0.11 0,0.1 0.1,0.09 0,0.09 0,0.08 0.1,0.08 0,0.07 0,0.07 0,0.06 0.1,0.06 0,0.06 0,0.05 0.1,0.05 0,0.05 0,0.04 0.1,0.04 0,0.03 0,0.03 0.1,0.03 0,0.03 0.1,0.03 0,0.02 0,0.02 0.1,0.02 0,0.02 0.1,0.01 0,0.02 0.1,0.01 c 0.5,0.11 2.1,0.11 3.1,0.11 5.1,0 7.3,-0.2 7.3,-4.09 0,-0.74 -0.2,-2.69 -0.4,-3.99 0,-0.19 -0.1,-0.8 -0.1,-0.94 0,-0.29 0.1,-0.65 0.6,-0.65 0.5,0 0.6,0.4 0.7,1.15 l 1.3,8.66 c 0.1,0.2 0.2,0.7 0.2,0.86 0,0.55 -0.5,0.55 -1.4,0.55 l -27.6,0 c -1.2,0 -1.3,-0.07 -1.6,-1 l -3,-8.77 c -0.1,-0.11 -0.3,-0.8 -0.3,-0.91 0,-0.29 0.2,-0.54 0.6,-0.54 0.5,0 0.5,0.25 0.8,1.04 2.7,7.72 4,8.63 11.4,8.63 l 1.9,0 c 1.4,0 1.4,-0.2 1.4,-0.59 0,-0.32 -0.1,-0.91 -0.2,-1.05 l -6.7,-26.61 c -0.4,-1.84 -0.6,-2.39 -5.9,-2.39 -1.8,0 -2.1,0 -2.1,-0.95 0,-0.6 0.6,-0.6 0.9,-0.6 1.3,0 2.7,0.1 4.1,0.1 1.3,0 2.8,0.06 4.2,0.06 1.4,0 2.8,-0.06 4.1,-0.06 1.5,0 3,-0.1 4.4,-0.1 0.5,0 1.1,0 1.1,1 0,0.55 -0.4,0.55 -1.7,0.55 -1.3,0 -1.9,0 -3.2,0.09 -1.5,0.16 -1.9,0.3 -1.9,1.1 0,0.06 0,0.31 0.2,1.04 z"
           inkscape:connector-curvature="0"
           style="fill:#000000;stroke-width:0" /><path
           id="path4149"
           d="m 1234.2,365.27 0,0.14 -0.1,0.13 0,0.13 0,0.13 0,0.13 -0.1,0.12 0,0.13 0,0.12 -0.1,0.11 -0.1,0.12 0,0.11 -0.1,0.1 -0.1,0.11 0,0.1 -0.1,0.09 -0.1,0.09 -0.1,0.09 -0.1,0.09 -0.1,0.07 -0.1,0.08 -0.1,0.07 -0.1,0.06 -0.1,0.06 -0.2,0.05 -0.1,0.05 -0.1,0.04 -0.1,0.04 -0.2,0.03 -0.1,0.02 -0.1,0.02 -0.1,0.01 -0.2,0 c -1.4,0 -2.6,-1.19 -2.6,-2.64 0,-1.44 1.2,-2.64 2.6,-2.64 1.5,0 2.7,1.2 2.7,2.64 z"
           inkscape:connector-curvature="0"
           style="fill:#000000;stroke-width:0" /><path
           id="path4151"
           d="m 1233.2,346.99 0,-0.14 0,-0.15 0,-0.17 0,-0.18 0,-0.19 0,-0.2 0,-0.21 0,-0.23 -0.1,-0.24 0,-0.25 0,-0.25 0,-0.27 -0.1,-0.27 0,-0.29 -0.1,-0.29 -0.1,-0.29 -0.1,-0.31 0,-0.31 -0.1,-0.32 -0.2,-0.32 -0.1,-0.33 -0.1,-0.33 -0.2,-0.33 -0.1,-0.34 -0.2,-0.34 -0.2,-0.34 -0.2,-0.35 -0.2,-0.34 -0.2,-0.35 -0.3,-0.35 -0.3,-0.34 -0.3,-0.35 c -0.3,-0.39 -0.3,-0.5 -0.3,-0.64 0,-0.36 0.2,-0.55 0.5,-0.55 0.5,0 4.1,3.99 4.1,9.77 0,1.44 -0.1,5.12 -2.8,5.12 -1.7,0 -2.6,-1.34 -2.6,-2.64 0,-1.29 0.8,-2.64 2.6,-2.64 0.3,0 0.4,0 0.4,0.05 0.4,0.05 0.9,0.15 1.3,0.5 z"
           inkscape:connector-curvature="0"
           style="fill:#000000;stroke-width:0" /><path
           id="path4153"
           d="m 1270.8,366.93 -4.1,9.9 c -0.2,0.41 -0.3,0.6 -0.3,0.64 0,0.32 0.8,1.25 2.9,1.46 0.5,0.04 1,0.09 1,0.95 0,0.59 -0.6,0.59 -0.7,0.59 -2,0 -4.2,-0.15 -6.3,-0.15 -1.2,0 -4.3,0.15 -5.6,0.15 -0.3,0 -0.9,0 -0.9,-1 0,-0.54 0.5,-0.54 1.2,-0.54 3,0 3.3,-0.5 3.7,-1.6 l 5.9,-13.9 -10.5,-11.32 -0.7,-0.54 c -2.4,-2.64 -4.7,-3.44 -7.3,-3.58 -0.6,-0.05 -1.1,-0.05 -1.1,-1 0,-0.05 0,-0.55 0.7,-0.55 1.5,0 3.1,0.16 4.6,0.16 1.9,0 3.8,-0.16 5.6,-0.16 0.3,0 0.9,0 0.9,1 0,0.5 -0.5,0.55 -0.6,0.55 -0.4,0.05 -2,0.14 -2,1.55 0,0.79 0.8,1.59 1.4,2.23 l 5.1,5.39 4.4,4.88 5.1,-11.91 c 0.2,-0.55 0.2,-0.59 0.2,-0.7 0,-0.39 -0.9,-1.24 -2.9,-1.44 -0.5,-0.05 -0.9,-0.11 -0.9,-0.95 0,-0.6 0.5,-0.6 0.7,-0.6 1.4,0 4.9,0.16 6.3,0.16 1.2,0 4.2,-0.16 5.5,-0.16 0.3,0 1,0 1,0.95 0,0.6 -0.5,0.6 -1,0.6 -3.3,0.05 -3.4,0.2 -4.2,2.19 -2,4.64 -5.3,12.4 -6.5,15.39 3.4,3.5 8.7,9.42 10.2,10.81 1.5,1.2 3.4,2.39 6.4,2.55 0.6,0.04 1.1,0.04 1.1,1 0,0.04 0,0.54 -0.7,0.54 -1.5,0 -3.1,-0.15 -4.7,-0.15 -1.8,0 -3.7,0.15 -5.5,0.15 -0.3,0 -0.9,0 -0.9,-1 0,-0.34 0.2,-0.5 0.6,-0.54 0.4,-0.05 2,-0.16 2,-1.55 0,-0.7 -0.6,-1.34 -1,-1.8 z"
           inkscape:connector-curvature="0"
           style="fill:#000000;stroke-width:0" /></g>    </g>
    <path
       inkscape:connector-curvature="0"
       id="path4210"
       d="m 181.23057,231.20412 c 128.43946,170.72842 91.74175,-278.629007 -9.40301,-68.88137"
       style="fill:none;fill-rule:evenodd;stroke:#000000;stroke-width:1.5;stroke-linecap:butt;stroke-linejoin:miter;stroke-miterlimit:4;stroke-dasharray:none;stroke-opacity:1;marker-end:url(#Arrow1Lend)"
       sodipodi:nodetypes="cc" />
    <path
       sodipodi:nodetypes="cccccccccccczccc"
       inkscape:connector-curvature="0"
       id="path4486"
       d="m 264.81149,207.33293 21.34335,4.1299 c 4.47905,-8.0715 10.044,-11.15585 17.5409,-8.52348 8.07609,-1.05993 15.09557,-6.78491 21.68802,-14.39523 5.26198,-6.54156 15.34429,3.84031 8.24698,11.17886 -4.8621,4.86093 -7.88511,11.61752 -14.17768,14.10249 l 47.0972,10.5012 c 7.85701,1.52126 4.08443,16.03792 -3.30241,14.1971 l -29.24991,-4.50138 c 3.4709,4.82108 1.51668,8.87717 -4.18059,12.56369 5.27958,3.18887 2.50102,12.00458 -5.0407,12.41642 4.91042,4.79797 0.0309,11.85592 -5.52665,11.74818 0,0 -27.29461,-1.01617 -35.3971,-7.48129 -8.10249,-6.46511 -8.26938,-16.61287 -8.26938,-16.61287 l -16.28497,-3.21169 z"
       style="fill:none;fill-rule:evenodd;stroke:#000000;stroke-width:1px;stroke-linecap:butt;stroke-linejoin:miter;stroke-opacity:1" />
    <g
       id="g4512"
       transform="matrix(0.75705285,0,0,0.75096536,-557.48639,-69.185106)">
      <g
         word-spacing="normal"
         letter-spacing="normal"
         font-size-adjust="none"
         font-stretch="normal"
         font-weight="normal"
         font-variant="normal"
         font-style="normal"
         stroke-miterlimit="10.433"
         xml:space="preserve"
         transform="matrix(1.0629921,0,0,-1.0629921,-186.02362,789.27165)"
         id="g4514"
         style="font-style:normal;font-variant:normal;font-weight:normal;font-stretch:normal;letter-spacing:normal;word-spacing:normal;text-anchor:start;fill:none;fill-opacity:1;fill-rule:evenodd;stroke:#000000;stroke-linecap:butt;stroke-linejoin:miter;stroke-miterlimit:10.43299961;stroke-dasharray:none;stroke-dashoffset:0;stroke-opacity:1"><path
           id="path4516"
           d="m 1258.8,374.69 0.2,0.41 0.2,0.39 0.3,0.38 0.2,0.37 0.2,0.18 0.1,0.17 0.1,0.17 0.2,0.17 0.1,0.16 0.1,0.15 0.2,0.15 0.1,0.15 0.2,0.13 0.2,0.14 0.1,0.12 0.2,0.12 0.2,0.12 0.2,0.1 0.2,0.1 0.2,0.1 0.2,0.08 0.3,0.08 0.2,0.07 0.3,0.06 0.2,0.06 0.3,0.04 0.3,0.04 0.2,0.03 c 0.5,0.04 1,0.04 1,1 0,0.18 -0.2,0.54 -0.6,0.54 -1.2,0 -2.6,-0.15 -3.8,-0.15 -1.7,0 -3.6,0.15 -5.2,0.15 -0.3,0 -1,0 -1,-0.95 0,-0.55 0.5,-0.59 0.8,-0.59 1.2,-0.05 2.9,-0.46 2.9,-1.94 0,-0.55 -0.2,-0.95 -0.6,-1.66 l -13.5,-23.45 -1.8,24.7 c -0.1,1 -0.2,2.3 3.4,2.35 0.9,0 1.4,0 1.4,1 0,0.5 -0.5,0.54 -0.7,0.54 -2,0 -4.1,-0.15 -6.1,-0.15 -1.2,0 -4.1,0.15 -5.3,0.15 -0.3,0 -0.9,0 -0.9,-1 0,-0.54 0.5,-0.54 1.2,-0.54 2.2,0 2.5,-0.3 2.6,-1.25 l 0.3,-3.83 -12.6,-21.97 -1.9,25.25 c 0,0.59 0,1.75 3.8,1.8 0.5,0 1.1,0 1.1,1 0,0.54 -0.6,0.54 -0.7,0.54 -2,0 -4.1,-0.15 -6.2,-0.15 -1.7,0 -3.5,0.15 -5.2,0.15 -0.2,0 -0.9,0 -0.9,-0.95 0,-0.59 0.5,-0.59 1.3,-0.59 2.5,0 2.5,-0.46 2.6,-1.85 l 2.2,-30.44 c 0.1,-0.9 0.2,-1.29 0.9,-1.29 0.5,0 0.7,0.29 1.1,1.04 l 14.7,25.41 1.8,-25.16 c 0.1,-1.04 0.2,-1.29 0.8,-1.29 0.7,0 1,0.5 1.2,0.94 z"
           inkscape:connector-curvature="0"
           style="fill:#000000;stroke-width:0" /></g>    </g>
    <path
       style="fill:none;fill-rule:evenodd;stroke:#000000;stroke-width:1.5;stroke-linecap:butt;stroke-linejoin:miter;stroke-miterlimit:4;stroke-dasharray:1.5, 3;stroke-dashoffset:0;stroke-opacity:1;marker-end:url(#marker4551)"
       d="M 198.6625,207.38047 C 332.39151,86.023837 115.71854,-0.73331045 131.7341,165.80914"
       id="path4549"
       inkscape:connector-curvature="0"
       sodipodi:nodetypes="cc" />
    <path
       style="fill:none;fill-rule:evenodd;stroke:#000000;stroke-width:1px;stroke-linecap:butt;stroke-linejoin:miter;stroke-opacity:1"
       d="m 195.7962,72.780181 12.07422,-18.07783 c -5.70665,-7.255684 -6.39486,-13.580887 -1.06425,-19.473066 2.15082,-7.856242 -0.40852,-16.545217 -4.87145,-25.5707252 -3.99289,-7.3849255 9.4837,-12.659166 13.50052,-3.2734815 2.59834,6.3653267 7.65668,11.7693297 7.51044,18.5332147 l 27.92318,-39.353751 c 4.44569,-6.654514 16.36809,2.446181 11.80987,8.5434511 L 247.19966,19.331356 c 5.78911,-1.332687 8.77171,2.04001 9.96382,8.72045 4.98485,-3.632385 12.03627,2.343788 9.49491,9.456351 6.32536,-2.668789 10.94246,4.56357 8.6906,9.645568 0,0 -11.50859,24.770573 -20.60732,29.736566 -9.09871,4.96599 -18.51905,1.189423 -18.51905,1.189423 l -9.26848,13.769927 z"
       id="path4859"
       inkscape:connector-curvature="0"
       sodipodi:nodetypes="cccccccccccczccc" />
    <g
       transform="matrix(0.73378355,0,0,0.73378355,-593.54438,-241.48049)"
       id="g4892">
      <g
         style="font-style:normal;font-variant:normal;font-weight:normal;font-stretch:normal;letter-spacing:normal;word-spacing:normal;text-anchor:start;fill:none;fill-opacity:1;fill-rule:evenodd;stroke:#000000;stroke-linecap:butt;stroke-linejoin:miter;stroke-miterlimit:10.43299961;stroke-dasharray:none;stroke-dashoffset:0;stroke-opacity:1"
         id="g4894"
         transform="matrix(1.0629921,0,0,-1.0629921,-186.02362,789.27165)"
         xml:space="preserve"
         stroke-miterlimit="10.433"
         font-style="normal"
         font-variant="normal"
         font-weight="normal"
         font-stretch="normal"
         font-size-adjust="none"
         letter-spacing="normal"
         word-spacing="normal"><path
           style="fill:#000000;stroke-width:0"
           inkscape:connector-curvature="0"
           d="m 1251.8,374.69 0.2,0.41 0.3,0.39 0.2,0.38 0.3,0.37 0.1,0.18 0.1,0.17 0.2,0.17 0.1,0.17 0.1,0.16 0.2,0.15 0.1,0.15 0.2,0.15 0.2,0.13 0.1,0.14 0.2,0.12 0.2,0.12 0.2,0.12 0.2,0.1 0.2,0.1 0.2,0.1 0.2,0.08 0.2,0.08 0.3,0.07 0.2,0.06 0.3,0.06 0.2,0.04 0.3,0.04 0.3,0.03 c 0.4,0.04 0.9,0.04 0.9,1 0,0.18 -0.2,0.54 -0.6,0.54 -1.2,0 -2.5,-0.15 -3.8,-0.15 -1.7,0 -3.5,0.15 -5.2,0.15 -0.3,0 -0.9,0 -0.9,-0.95 0,-0.55 0.4,-0.59 0.7,-0.59 1.2,-0.05 3,-0.46 3,-1.94 0,-0.55 -0.3,-0.95 -0.7,-1.66 l -13.4,-23.45 -1.9,24.7 c 0,1 -0.1,2.3 3.5,2.35 0.9,0 1.4,0 1.4,1 0,0.5 -0.6,0.54 -0.8,0.54 -2,0 -4.1,-0.15 -6.1,-0.15 -1.1,0 -4.1,0.15 -5.2,0.15 -0.3,0 -1,0 -1,-1 0,-0.54 0.5,-0.54 1.2,-0.54 2.2,0 2.6,-0.3 2.7,-1.25 l 0.3,-3.83 -12.6,-21.97 -1.9,25.25 c 0,0.59 0,1.75 3.8,1.8 0.5,0 1,0 1,1 0,0.54 -0.6,0.54 -0.7,0.54 -2,0 -4.1,-0.15 -6.1,-0.15 -1.8,0 -3.6,0.15 -5.2,0.15 -0.3,0 -0.9,0 -0.9,-0.95 0,-0.59 0.4,-0.59 1.2,-0.59 2.5,0 2.6,-0.46 2.7,-1.85 l 2.2,-30.44 c 0,-0.9 0.1,-1.29 0.8,-1.29 0.6,0 0.7,0.29 1.2,1.04 l 14.6,25.41 1.9,-25.16 c 0.1,-1.04 0.2,-1.29 0.8,-1.29 0.6,0 0.9,0.5 1.2,0.94 z"
           id="path4896" /><path
           style="fill:#000000;stroke-width:0"
           inkscape:connector-curvature="0"
           d="m 1270.2,383.41 0.1,0.06 0,0.05 0,0.05 0,0.05 0,0.04 0.1,0.05 0,0.04 0,0.05 0,0.04 0,0.04 0,0.04 0.1,0.03 0,0.04 0,0.03 0,0.04 0,0.03 0,0.03 0,0.03 0,0.04 0,0.02 0,0.03 0,0.03 0,0.03 0,0.03 0,0.05 0,0.05 0,0.05 0,0.04 c 0,1.08 -0.9,1.93 -2,1.93 -1.3,0 -1.7,-1.1 -1.9,-1.65 l -4.6,-15.09 c -0.1,-0.06 -0.2,-0.51 -0.2,-0.56 0,-0.41 1.1,-0.77 1.4,-0.77 0.2,0 0.2,0.08 0.5,0.6 z"
           id="path4898" /></g>    </g>
    <path
       sodipodi:nodetypes="csc"
       inkscape:connector-curvature="0"
       id="path4939"
       d="m 146.36669,230.04199 c 99.08275,179.4626 279.84575,65.50527 272.33813,-19.8716 C 408.5756,94.980702 228.95677,28.979619 152.07136,164.64701"
       style="fill:none;fill-rule:evenodd;stroke:#000000;stroke-width:1.5;stroke-linecap:butt;stroke-linejoin:miter;stroke-miterlimit:4;stroke-dasharray:1.5, 3;stroke-dashoffset:0;stroke-opacity:1;marker-end:url(#marker4941)" />
    <path
       style="fill:none;fill-rule:evenodd;stroke:#000000;stroke-width:1px;stroke-linecap:butt;stroke-linejoin:miter;stroke-opacity:1"
       d="m 405.8217,259.78008 15.84026,14.88896 c 8.0971,-4.43259 14.44923,-4.06875 19.38212,2.16018 7.39424,3.41641 16.38623,2.32434 26.02393,-0.5898 7.94209,-2.72096 10.92274,11.44066 1.00331,13.85543 -6.70655,1.51355 -12.87043,5.61192 -19.51769,4.35275 l 34.21265,34.02817 c 5.83067,5.48179 -5.11078,15.74095 -10.37329,10.24004 l -22.3268,-19.42508 c 0.36019,5.9296 -3.458,8.31545 -10.24356,8.39007 2.761,5.51542 -4.29576,11.48529 -10.89212,7.80626 1.58963,6.67877 -6.30487,10.04054 -10.94615,6.98178 0,0 -22.53469,-15.43426 -25.93295,-25.22711 -3.39825,-9.79284 1.87947,-18.46179 1.87947,-18.46179 l -12.05376,-11.41148 z"
       id="path5113"
       inkscape:connector-curvature="0"
       sodipodi:nodetypes="cccccccccccczccc" />
    <g
       id="g5154"
       transform="matrix(0.62661809,0,0,0.62661809,-288.06047,47.227357)">
      <g
         word-spacing="normal"
         letter-spacing="normal"
         font-size-adjust="none"
         font-stretch="normal"
         font-weight="normal"
         font-variant="normal"
         font-style="normal"
         stroke-miterlimit="10.433"
         xml:space="preserve"
         transform="matrix(1.0629921,0,0,-1.0629921,-186.02362,789.27165)"
         id="g5156"
         style="font-style:normal;font-variant:normal;font-weight:normal;font-stretch:normal;letter-spacing:normal;word-spacing:normal;text-anchor:start;fill:none;fill-opacity:1;fill-rule:evenodd;stroke:#000000;stroke-linecap:butt;stroke-linejoin:miter;stroke-miterlimit:10.43299961;stroke-dasharray:none;stroke-dashoffset:0;stroke-opacity:1"><path
           id="path5158"
           d="m 1246.1,374.69 0.2,0.41 0.2,0.39 0.3,0.38 0.2,0.37 0.1,0.18 0.2,0.17 0.1,0.17 0.1,0.17 0.2,0.16 0.1,0.15 0.2,0.15 0.1,0.15 0.2,0.13 0.2,0.14 0.1,0.12 0.2,0.12 0.2,0.12 0.2,0.1 0.2,0.1 0.2,0.1 0.2,0.08 0.3,0.08 0.2,0.07 0.2,0.06 0.3,0.06 0.3,0.04 0.2,0.04 0.3,0.03 c 0.5,0.04 1,0.04 1,1 0,0.18 -0.2,0.54 -0.6,0.54 -1.2,0 -2.6,-0.15 -3.9,-0.15 -1.7,0 -3.5,0.15 -5.2,0.15 -0.2,0 -0.9,0 -0.9,-0.95 0,-0.55 0.4,-0.59 0.8,-0.59 1.1,-0.05 2.9,-0.46 2.9,-1.94 0,-0.55 -0.3,-0.95 -0.6,-1.66 l -13.5,-23.45 -1.8,24.7 c -0.1,1 -0.2,2.3 3.4,2.35 0.9,0 1.4,0 1.4,1 0,0.5 -0.6,0.54 -0.8,0.54 -2,0 -4,-0.15 -6,-0.15 -1.2,0 -4.1,0.15 -5.3,0.15 -0.3,0 -0.9,0 -0.9,-1 0,-0.54 0.5,-0.54 1.2,-0.54 2.2,0 2.5,-0.3 2.6,-1.25 l 0.3,-3.83 -12.6,-21.97 -1.9,25.25 c 0,0.59 0,1.75 3.8,1.8 0.5,0 1.1,0 1.1,1 0,0.54 -0.7,0.54 -0.7,0.54 -2,0 -4.1,-0.15 -6.2,-0.15 -1.7,0 -3.5,0.15 -5.2,0.15 -0.2,0 -0.9,0 -0.9,-0.95 0,-0.59 0.5,-0.59 1.2,-0.59 2.5,0 2.6,-0.46 2.7,-1.85 l 2.2,-30.44 c 0.1,-0.9 0.1,-1.29 0.8,-1.29 0.6,0 0.8,0.29 1.2,1.04 l 14.7,25.41 1.8,-25.16 c 0.1,-1.04 0.2,-1.29 0.8,-1.29 0.7,0 0.9,0.5 1.2,0.94 z"
           inkscape:connector-curvature="0"
           style="fill:#000000;stroke-width:0" /><path
           id="path5160"
           d="m 1264.5,383.41 0,0.06 0,0.05 0,0.05 0.1,0.05 0,0.04 0,0.05 0,0.04 0,0.05 0.1,0.04 0,0.04 0,0.04 0,0.03 0,0.04 0,0.03 0,0.04 0,0.03 0,0.03 0,0.03 0.1,0.04 0,0.02 0,0.03 0,0.03 0,0.03 0,0.03 0,0.05 0,0.05 0,0.05 0,0.04 c 0,1.08 -1,1.93 -2.1,1.93 -1.3,0 -1.7,-1.1 -1.9,-1.65 l -4.6,-15.09 c 0,-0.06 -0.2,-0.51 -0.2,-0.56 0,-0.41 1.1,-0.77 1.4,-0.77 0.2,0 0.3,0.08 0.5,0.6 z"
           inkscape:connector-curvature="0"
           style="fill:#000000;stroke-width:0" /><path
           id="path5162"
           d="m 1276,383.41 0,0.06 0,0.05 0.1,0.05 0,0.05 0,0.04 0,0.05 0,0.04 0.1,0.05 0,0.04 0,0.04 0,0.04 0,0.03 0,0.04 0,0.03 0,0.04 0.1,0.03 0,0.03 0,0.03 0,0.04 0,0.02 0,0.03 0,0.03 0,0.03 0,0.03 0,0.05 0,0.05 0,0.05 0,0.04 c 0,1.08 -1,1.93 -2.1,1.93 -1.3,0 -1.7,-1.1 -1.9,-1.65 l -4.6,-15.09 c 0,-0.06 -0.1,-0.51 -0.1,-0.56 0,-0.41 1,-0.77 1.3,-0.77 0.3,0 0.3,0.08 0.5,0.6 z"
           inkscape:connector-curvature="0"
           style="fill:#000000;stroke-width:0" /></g>    </g>
  </g>
</svg>
